<svg width="292" height="286" viewBox="0 0 292 286" fill="none" xmlns="http://www.w3.org/2000/svg">
<path d="M290.748 163.265L284.596 169.383" stroke="#66B2B2" stroke-width="2" stroke-miterlimit="10" stroke-linecap="round" stroke-linejoin="round"/>
<path d="M290.748 169.383L284.596 163.265" stroke="#66B2B2" stroke-width="2" stroke-miterlimit="10" stroke-linecap="round" stroke-linejoin="round"/>
<path d="M9.70005 163.939L1.00002 163.939" stroke="#66B2B2" stroke-width="2" stroke-miterlimit="10" stroke-linecap="round" stroke-linejoin="round"/>
<path d="M5.35101 168.275L5.35101 159.613" stroke="#66B2B2" stroke-width="2" stroke-miterlimit="10" stroke-linecap="round" stroke-linejoin="round"/>
<path d="M206.074 25.7536C203.16 25.7536 200.787 23.4033 200.787 20.4958C200.787 17.5985 203.15 15.238 206.074 15.238C208.988 15.238 211.361 17.5883 211.361 20.4958C211.351 23.4033 208.988 25.7536 206.074 25.7536Z" stroke="#66B2B2" stroke-width="2" stroke-miterlimit="10" stroke-linecap="round" stroke-linejoin="round"/>
<path d="M102.673 259.767C99.7591 259.767 97.3854 257.417 97.3854 254.51C97.3854 251.612 99.7489 249.252 102.673 249.252C105.586 249.252 107.96 251.602 107.96 254.51C107.95 257.417 105.586 259.767 102.673 259.767Z" stroke="#66B2B2" stroke-width="2" stroke-miterlimit="10" stroke-linecap="round" stroke-linejoin="round"/>
<path d="M59.3349 1.90448C59.3349 2.95615 60.1922 3.80871 61.2498 3.80871C62.3074 3.80871 63.1647 2.95616 63.1647 1.90448C63.1647 0.852799 62.3074 0.000244103 61.2498 0.000244057C60.1922 0.000244011 59.3349 0.852799 59.3349 1.90448Z" fill="#66B2B2"/>
<path d="M59.3349 15.2059C59.3349 16.2575 60.1922 17.1101 61.2498 17.1101C62.3074 17.1101 63.1647 16.2575 63.1647 15.2059C63.1647 14.1542 62.3074 13.3016 61.2498 13.3016C60.1922 13.3016 59.3349 14.1542 59.3349 15.2059Z" fill="#66B2B2"/>
<path d="M59.3349 28.4952C59.3349 29.5469 60.1922 30.3994 61.2498 30.3994C62.3074 30.3994 63.1647 29.5469 63.1647 28.4952C63.1647 27.4435 62.3074 26.5909 61.2498 26.5909C60.1922 26.5909 59.3349 27.4435 59.3349 28.4952Z" fill="#66B2B2"/>
<path d="M59.3349 41.7961C59.3349 42.8478 60.1922 43.7003 61.2498 43.7003C62.3074 43.7003 63.1647 42.8478 63.1647 41.7961C63.1647 40.7444 62.3074 39.8918 61.2498 39.8918C60.1922 39.8918 59.3349 40.7444 59.3349 41.7961Z" fill="#66B2B2"/>
<path d="M59.3349 55.0865C59.3349 56.1382 60.1922 56.9907 61.2498 56.9907C62.3074 56.9907 63.1647 56.1382 63.1647 55.0865C63.1647 54.0348 62.3074 53.1823 61.2498 53.1823C60.1922 53.1823 59.3349 54.0348 59.3349 55.0865Z" fill="#66B2B2"/>
<path d="M45.9689 1.90423C45.9689 2.95591 46.8262 3.80847 47.8838 3.80847C48.9414 3.80847 49.7987 2.95591 49.7987 1.90423C49.7987 0.852555 48.9414 -3.74753e-08 47.8838 -8.37032e-08C46.8262 -1.29931e-07 45.9689 0.852554 45.9689 1.90423Z" fill="#66B2B2"/>
<path d="M45.9689 15.2057C45.9689 16.2574 46.8262 17.11 47.8838 17.11C48.9414 17.11 49.7987 16.2574 49.7987 15.2057C49.7987 14.1541 48.9414 13.3015 47.8838 13.3015C46.8262 13.3015 45.9689 14.1541 45.9689 15.2057Z" fill="#66B2B2"/>
<path d="M45.9689 28.4954C45.9689 29.5471 46.8262 30.3996 47.8838 30.3996C48.9414 30.3996 49.7987 29.5471 49.7987 28.4954C49.7987 27.4437 48.9414 26.5912 47.8838 26.5912C46.8262 26.5912 45.9689 27.4437 45.9689 28.4954Z" fill="#66B2B2"/>
<path d="M45.9689 41.7963C45.9689 42.848 46.8262 43.7006 47.8838 43.7006C48.9414 43.7006 49.7987 42.848 49.7987 41.7963C49.7987 40.7446 48.9414 39.8921 47.8838 39.8921C46.8262 39.8921 45.9689 40.7446 45.9689 41.7963Z" fill="#66B2B2"/>
<path d="M45.9689 55.0866C45.9689 56.1383 46.8262 56.9908 47.8838 56.9908C48.9414 56.9908 49.7987 56.1383 49.7987 55.0866C49.7987 54.0349 48.9414 53.1824 47.8838 53.1824C46.8262 53.1824 45.9689 54.0349 45.9689 55.0866Z" fill="#66B2B2"/>
<path d="M32.5928 1.90423C32.5928 2.95591 33.4502 3.80847 34.5077 3.80847C35.5653 3.80847 36.4226 2.95591 36.4226 1.90423C36.4226 0.852555 35.5653 -3.74754e-08 34.5077 -8.37033e-08C33.4502 -1.29931e-07 32.5928 0.852554 32.5928 1.90423Z" fill="#66B2B2"/>
<path d="M32.5928 15.2057C32.5928 16.2574 33.4502 17.11 34.5077 17.11C35.5653 17.11 36.4226 16.2574 36.4226 15.2057C36.4226 14.1541 35.5653 13.3015 34.5077 13.3015C33.4502 13.3015 32.5928 14.1541 32.5928 15.2057Z" fill="#66B2B2"/>
<path d="M32.5928 28.4954C32.5928 29.5471 33.4502 30.3996 34.5077 30.3996C35.5653 30.3996 36.4226 29.5471 36.4226 28.4954C36.4226 27.4437 35.5653 26.5912 34.5077 26.5912C33.4502 26.5912 32.5928 27.4437 32.5928 28.4954Z" fill="#66B2B2"/>
<path d="M32.5929 41.7963C32.5929 42.848 33.4502 43.7006 34.5078 43.7006C35.5653 43.7006 36.4227 42.848 36.4227 41.7963C36.4227 40.7446 35.5653 39.8921 34.5078 39.8921C33.4502 39.8921 32.5929 40.7446 32.5929 41.7963Z" fill="#66B2B2"/>
<path d="M32.5928 55.0866C32.5928 56.1383 33.4502 56.9908 34.5077 56.9908C35.5653 56.9908 36.4226 56.1383 36.4226 55.0866C36.4226 54.0349 35.5653 53.1824 34.5077 53.1824C33.4502 53.1824 32.5928 54.0349 32.5928 55.0866Z" fill="#66B2B2"/>
<path d="M19.2271 1.90423C19.2271 2.95591 20.0844 3.80847 21.142 3.80847C22.1996 3.80847 23.0569 2.95591 23.0569 1.90423C23.0569 0.852555 22.1996 -3.74754e-08 21.142 -8.37034e-08C20.0844 -1.29931e-07 19.2271 0.852554 19.2271 1.90423Z" fill="#66B2B2"/>
<path d="M19.2271 15.2057C19.2271 16.2574 20.0844 17.11 21.142 17.11C22.1996 17.11 23.0569 16.2574 23.0569 15.2057C23.0569 14.1541 22.1996 13.3015 21.142 13.3015C20.0844 13.3015 19.2271 14.1541 19.2271 15.2057Z" fill="#66B2B2"/>
<path d="M19.2271 28.4954C19.2271 29.5471 20.0844 30.3996 21.142 30.3996C22.1996 30.3996 23.0569 29.5471 23.0569 28.4954C23.0569 27.4437 22.1996 26.5912 21.142 26.5912C20.0844 26.5912 19.2271 27.4437 19.2271 28.4954Z" fill="#66B2B2"/>
<path d="M19.2271 41.7963C19.2271 42.848 20.0844 43.7006 21.142 43.7006C22.1996 43.7006 23.0569 42.848 23.0569 41.7963C23.0569 40.7446 22.1996 39.8921 21.142 39.8921C20.0844 39.8921 19.2271 40.7446 19.2271 41.7963Z" fill="#66B2B2"/>
<path d="M19.2271 55.0866C19.2271 56.1383 20.0845 56.9908 21.142 56.9908C22.1996 56.9908 23.0569 56.1383 23.0569 55.0866C23.0569 54.0349 22.1996 53.1824 21.142 53.1824C20.0845 53.1824 19.2271 54.0349 19.2271 55.0866Z" fill="#66B2B2"/>
<path d="M270.97 227.211C270.97 228.262 271.828 229.115 272.885 229.115C273.943 229.115 274.8 228.262 274.8 227.211C274.8 226.159 273.943 225.306 272.885 225.306C271.828 225.306 270.97 226.159 270.97 227.211Z" fill="#66B2B2"/>
<path d="M270.971 240.5C270.971 241.552 271.828 242.405 272.885 242.405C273.943 242.405 274.8 241.552 274.8 240.5C274.8 239.449 273.943 238.596 272.885 238.596C271.828 238.596 270.971 239.449 270.971 240.5Z" fill="#66B2B2"/>
<path d="M270.971 253.801C270.971 254.853 271.828 255.705 272.885 255.705C273.943 255.705 274.8 254.853 274.8 253.801C274.8 252.749 273.943 251.897 272.885 251.897C271.828 251.897 270.971 252.749 270.971 253.801Z" fill="#66B2B2"/>
<path d="M257.594 227.21C257.594 228.262 258.452 229.114 259.509 229.114C260.567 229.114 261.424 228.262 261.424 227.21C261.424 226.159 260.567 225.306 259.509 225.306C258.452 225.306 257.594 226.159 257.594 227.21Z" fill="#66B2B2"/>
<path d="M257.594 240.501C257.594 241.552 258.452 242.405 259.509 242.405C260.567 242.405 261.424 241.552 261.424 240.501C261.424 239.449 260.567 238.596 259.509 238.596C258.452 238.596 257.594 239.449 257.594 240.501Z" fill="#66B2B2"/>
<path d="M257.594 253.802C257.594 254.853 258.452 255.706 259.509 255.706C260.567 255.706 261.424 254.853 261.424 253.802C261.424 252.75 260.567 251.897 259.509 251.897C258.452 251.897 257.594 252.75 257.594 253.802Z" fill="#66B2B2"/>
<path d="M113.709 110.835V128.94L145.488 146.227L177.271 128.94V110.835L145.488 128.124L113.709 110.835ZM145.488 64.7617L95.5474 91.9177L145.488 119.074L186.35 96.8496V128.124H195.429V91.9177L145.488 64.7617Z" fill="white"/>
<path d="M100.033 172.055H96.4408V159.139H100.033V172.055ZM98.231 157.372C97.6788 157.372 97.2109 157.183 96.8244 156.803C96.4437 156.416 96.2548 155.942 96.2548 155.384C96.2548 154.835 96.4437 154.367 96.8244 153.978C97.2109 153.583 97.6788 153.385 98.231 153.385C98.789 153.385 99.2569 153.583 99.6376 153.978C100.015 154.367 100.207 154.835 100.207 155.384C100.207 155.942 100.015 156.416 99.6376 156.803C99.2569 157.183 98.789 157.372 98.231 157.372Z" fill="white"/>
<path d="M119.061 153.594H122.792V172.055H118.851V159.872L114.457 166.045H111.307L106.854 160.046V172.055H102.89V153.594H106.645L112.888 162.104L119.061 153.594Z" fill="white"/>
<path d="M131.658 158.779C132.58 158.779 133.449 158.959 134.262 159.314C135.082 159.662 135.797 160.148 136.401 160.767C137.006 161.38 137.485 162.101 137.843 162.929C138.198 163.752 138.378 164.632 138.378 165.568C138.378 166.507 138.198 167.39 137.843 168.218C137.485 169.041 137.006 169.762 136.401 170.381C135.797 170.994 135.082 171.479 134.262 171.834C133.449 172.188 132.58 172.369 131.658 172.369C130.72 172.369 129.845 172.188 129.031 171.834C128.217 171.479 127.503 170.994 126.892 170.381C126.288 169.762 125.805 169.041 125.451 168.218C125.093 167.39 124.916 166.507 124.916 165.568C124.916 164.632 125.093 163.752 125.451 162.929C125.805 162.101 126.288 161.38 126.892 160.767C127.503 160.148 128.217 159.662 129.031 159.314C129.845 158.959 130.72 158.779 131.658 158.779ZM131.658 169.218C132.091 169.218 132.495 169.134 132.867 168.962C133.245 168.785 133.579 168.544 133.867 168.242C134.152 167.939 134.379 167.576 134.541 167.149C134.704 166.725 134.786 166.251 134.786 165.731C134.786 165.205 134.704 164.716 134.541 164.266C134.379 163.818 134.152 163.426 133.867 163.092C133.579 162.752 133.245 162.481 132.867 162.278C132.495 162.078 132.091 161.976 131.658 161.976C131.223 161.976 130.816 162.078 130.438 162.278C130.057 162.481 129.723 162.752 129.438 163.092C129.15 163.426 128.921 163.818 128.752 164.266C128.589 164.716 128.508 165.205 128.508 165.731C128.508 166.251 128.589 166.725 128.752 167.149C128.921 167.576 129.15 167.939 129.438 168.242C129.723 168.544 130.057 168.785 130.438 168.962C130.816 169.134 131.223 169.218 131.658 169.218Z" fill="white"/>
<path d="M147.104 159.139C147.584 159.139 148.118 159.209 148.708 159.349C149.304 159.488 149.862 159.75 150.382 160.127C150.9 160.508 151.339 161.04 151.696 161.72C152.051 162.394 152.231 163.272 152.231 164.347V172.055H148.615V164.475C148.615 164.08 148.549 163.743 148.418 163.464C148.284 163.185 148.11 162.964 147.895 162.801C147.677 162.633 147.43 162.508 147.151 162.429C146.872 162.354 146.596 162.313 146.325 162.313C146.093 162.313 145.84 162.354 145.57 162.429C145.305 162.508 145.052 162.636 144.814 162.813C144.582 162.984 144.387 163.208 144.233 163.487C144.076 163.766 144 164.097 144 164.475V172.055H140.408V159.139H143.477L144 160.127C144.419 159.834 144.887 159.598 145.407 159.418C145.924 159.232 146.491 159.139 147.104 159.139Z" fill="white"/>
<path d="M158.506 172.055H154.914V159.139H158.506V172.055ZM156.704 157.372C156.152 157.372 155.684 157.183 155.297 156.803C154.916 156.416 154.728 155.942 154.728 155.384C154.728 154.835 154.916 154.367 155.297 153.978C155.684 153.583 156.152 153.385 156.704 153.385C157.262 153.385 157.73 153.583 158.11 153.978C158.488 154.367 158.68 154.835 158.68 155.384C158.68 155.942 158.488 156.416 158.11 156.803C157.73 157.183 157.262 157.372 156.704 157.372Z" fill="white"/>
<path d="M166.083 167.416C166.083 168.03 166.269 168.503 166.641 168.835C167.013 169.16 167.501 169.323 168.105 169.323C168.594 169.323 169.082 169.227 169.57 169.032V172.055C169.134 172.194 168.675 172.31 168.187 172.403C167.699 172.502 167.213 172.555 166.734 172.555C166.176 172.555 165.644 172.485 165.141 172.345C164.635 172.206 164.182 171.968 163.781 171.625C163.386 171.285 163.072 170.834 162.839 170.276C162.607 169.712 162.491 169.009 162.491 168.172V162.336H160.642V159.918L162.491 159.139V156.245H166.083V159.139H169.57V162.336H166.083V167.416Z" fill="white"/>
<path d="M177.765 158.779C178.686 158.779 179.555 158.959 180.369 159.314C181.189 159.662 181.903 160.148 182.508 160.767C183.112 161.38 183.592 162.101 183.949 162.929C184.304 163.752 184.484 164.632 184.484 165.568C184.484 166.507 184.304 167.39 183.949 168.218C183.592 169.041 183.112 169.762 182.508 170.381C181.903 170.994 181.189 171.479 180.369 171.834C179.555 172.188 178.686 172.369 177.765 172.369C176.826 172.369 175.951 172.188 175.138 171.834C174.324 171.479 173.609 170.994 172.999 170.381C172.394 169.762 171.912 169.041 171.557 168.218C171.2 167.39 171.022 166.507 171.022 165.568C171.022 164.632 171.2 163.752 171.557 162.929C171.912 162.101 172.394 161.38 172.999 160.767C173.609 160.148 174.324 159.662 175.138 159.314C175.951 158.959 176.826 158.779 177.765 158.779ZM177.765 169.218C178.198 169.218 178.602 169.134 178.974 168.962C179.352 168.785 179.686 168.544 179.974 168.242C180.259 167.939 180.485 167.576 180.648 167.149C180.811 166.725 180.892 166.251 180.892 165.731C180.892 165.205 180.811 164.716 180.648 164.266C180.485 163.818 180.259 163.426 179.974 163.092C179.686 162.752 179.352 162.481 178.974 162.278C178.602 162.078 178.198 161.976 177.765 161.976C177.329 161.976 176.922 162.078 176.544 162.278C176.164 162.481 175.829 162.752 175.545 163.092C175.257 163.426 175.027 163.818 174.859 164.266C174.696 164.716 174.615 165.205 174.615 165.731C174.615 166.251 174.696 166.725 174.859 167.149C175.027 167.576 175.257 167.939 175.545 168.242C175.829 168.544 176.164 168.785 176.544 168.962C176.922 169.134 177.329 169.218 177.765 169.218Z" fill="white"/>
<path d="M190.026 160.941C190.203 160.662 190.403 160.401 190.63 160.151C190.854 159.895 191.121 159.668 191.432 159.465C191.749 159.264 192.106 159.104 192.502 158.988C192.903 158.866 193.356 158.802 193.862 158.802C194.449 158.802 195.135 158.907 195.919 159.116L195.582 162.313C195.388 162.284 195.193 162.24 195.001 162.185C194.844 162.156 194.67 162.127 194.478 162.104C194.292 162.075 194.12 162.057 193.966 162.057C193.408 162.057 192.888 162.136 192.409 162.29C191.935 162.447 191.525 162.662 191.176 162.941C190.828 163.22 190.549 163.557 190.339 163.952C190.13 164.341 190.026 164.76 190.026 165.208V172.055H186.433V159.139H189.688L190.026 160.941Z" fill="white"/>
<path d="M39.4541 184.966H37.9529V190.187H37.0495V184.966H36V184.567L37.0495 184.235V183.916C37.0495 182.455 37.6872 181.724 38.9625 181.724C39.2714 181.724 39.6401 181.791 40.0652 181.924L39.8261 182.641C39.4806 182.528 39.1884 182.468 38.9492 182.468C38.6038 182.468 38.3514 182.585 38.192 182.814C38.0326 183.036 37.9529 183.395 37.9529 183.89V184.275H39.4541V184.966Z" fill="white"/>
<path d="M43.0011 190.187H42.111V184.275H43.0011V190.187ZM42.0313 182.668C42.0313 182.465 42.0778 182.315 42.1774 182.216C42.2837 182.12 42.4099 182.07 42.5627 182.07C42.7022 182.07 42.8218 182.12 42.9214 182.216C43.0277 182.315 43.0808 182.465 43.0808 182.668C43.0808 182.873 43.0277 183.023 42.9214 183.119C42.8218 183.219 42.7022 183.265 42.5627 183.265C42.4099 183.265 42.2837 183.219 42.1774 183.119C42.0778 183.023 42.0313 182.873 42.0313 182.668Z" fill="white"/>
<path d="M50.514 190.187V186.361C50.514 185.882 50.4011 185.524 50.1819 185.285C49.9693 185.046 49.6272 184.926 49.1589 184.926C48.5379 184.926 48.0829 185.095 47.7906 185.431C47.505 185.76 47.3655 186.308 47.3655 187.078V190.187H46.4754V184.275H47.1928L47.3389 185.085H47.392C47.5681 184.793 47.8205 184.567 48.1493 184.408C48.4847 184.248 48.8567 184.169 49.2652 184.169C49.9726 184.169 50.5074 184.341 50.8727 184.687C51.2347 185.026 51.4174 185.574 51.4174 186.334V190.187H50.514Z" fill="white"/>
<path d="M58.8523 189.39H58.7992C58.3807 189.994 57.7629 190.293 56.9393 190.293C56.1687 190.293 55.5643 190.034 55.1325 189.509C54.7074 188.978 54.4949 188.227 54.4949 187.251C54.4949 186.268 54.7074 185.511 55.1325 184.979C55.5643 184.441 56.1687 184.169 56.9393 184.169C57.743 184.169 58.3608 184.458 58.7859 185.032H58.8523L58.8257 184.607L58.7992 184.195V181.791H59.6893V190.187H58.9719L58.8523 189.39ZM57.0588 189.549C57.6699 189.549 58.1117 189.383 58.3873 189.044C58.6597 188.709 58.7992 188.174 58.7992 187.437V187.251C58.7992 186.411 58.6563 185.813 58.374 185.457C58.0984 185.095 57.6567 184.913 57.0456 184.913C56.5208 184.913 56.1189 185.119 55.8366 185.524C55.561 185.932 55.4248 186.507 55.4248 187.251C55.4248 188.015 55.561 188.589 55.8366 188.978C56.109 189.36 56.5175 189.549 57.0588 189.549Z" fill="white"/>
<path d="M66.6645 184.275H67.621L68.9229 187.649C69.2052 188.42 69.3779 188.975 69.441 189.31H69.4942C69.5373 189.124 69.6336 188.812 69.7864 188.367C69.9359 187.925 70.4241 186.56 71.2478 184.275H72.2043L69.6669 191.01C69.4178 191.675 69.1255 192.143 68.7901 192.419C68.4513 192.701 68.0361 192.844 67.5413 192.844C67.2756 192.844 67.0099 192.811 66.7442 192.751V192.033C66.9368 192.077 67.156 192.1 67.3951 192.1C68.0129 192.1 68.4579 191.754 68.7236 191.064L69.0425 190.213L66.6645 184.275Z" fill="white"/>
<path d="M79.8467 187.224C79.8467 188.191 79.6009 188.945 79.116 189.483C78.6278 190.024 77.9536 190.293 77.0967 190.293C76.572 190.293 76.1037 190.17 75.6885 189.921C75.28 189.675 74.9645 189.32 74.7453 188.858C74.5228 188.39 74.4132 187.845 74.4132 187.224C74.4132 186.261 74.6523 185.51 75.1306 184.979C75.6155 184.441 76.2864 184.169 77.1366 184.169C77.9669 184.169 78.6278 184.444 79.116 184.992C79.6009 185.544 79.8467 186.288 79.8467 187.224ZM75.3431 187.224C75.3431 187.978 75.4926 188.553 75.7948 188.951C76.0937 189.35 76.5388 189.549 77.1233 189.549C77.7078 189.549 78.1496 189.356 78.4518 188.965C78.7607 188.566 78.9168 187.988 78.9168 187.224C78.9168 186.474 78.7607 185.902 78.4518 185.51C78.1496 185.122 77.7012 184.926 77.11 184.926C76.5255 184.926 76.0804 185.122 75.7815 185.51C75.4893 185.892 75.3431 186.464 75.3431 187.224Z" fill="white"/>
<path d="M83.8258 184.275V188.114C83.8258 188.593 83.9321 188.951 84.1446 189.19C84.3638 189.43 84.7092 189.549 85.1809 189.549C85.7986 189.549 86.2503 189.383 86.5359 189.044C86.8282 188.699 86.9743 188.148 86.9743 187.384V184.275H87.8644V190.187H87.1337L87.0009 189.39H86.9477C86.7618 189.682 86.5027 189.908 86.1772 190.067C85.8584 190.217 85.4897 190.293 85.0746 190.293C84.3472 190.293 83.8059 190.127 83.4538 189.788C83.0984 189.443 82.9224 188.895 82.9224 188.141V184.275H83.8258Z" fill="white"/>
<path d="M94.0373 184.169C94.293 184.169 94.5288 184.189 94.7414 184.222L94.6218 185.059C94.3727 185.006 94.1569 184.979 93.9709 184.979C93.4926 184.979 93.0808 185.175 92.7354 185.564C92.3966 185.956 92.2305 186.437 92.2305 187.012V190.187H91.3405V184.275H92.0711L92.1774 185.364H92.2173C92.4365 184.986 92.7022 184.693 93.0144 184.488C93.3232 184.275 93.6653 184.169 94.0373 184.169Z" fill="white"/>
<path d="M106.683 190.187L105.593 186.719C105.53 186.507 105.407 186.025 105.222 185.271H105.168C105.026 185.902 104.903 186.387 104.796 186.733L103.68 190.187H102.644L101.023 184.275H101.967C102.345 185.763 102.634 186.899 102.83 187.676C103.033 188.446 103.149 188.965 103.176 189.23H103.229C103.262 189.028 103.325 188.765 103.415 188.446C103.501 188.121 103.577 187.859 103.641 187.663L104.73 184.275H105.7L106.763 187.663C106.965 188.284 107.101 188.805 107.174 189.23H107.214C107.231 189.097 107.271 188.898 107.334 188.632C107.394 188.36 107.766 186.905 108.45 184.275H109.38L107.746 190.187H106.683Z" fill="white"/>
<path d="M115.652 190.187L115.479 189.35H115.439C115.137 189.715 114.841 189.961 114.549 190.094C114.257 190.227 113.891 190.293 113.46 190.293C112.865 190.293 112.4 190.144 112.065 189.841C111.736 189.542 111.573 189.111 111.573 188.553C111.573 187.357 112.53 186.733 114.443 186.68L115.439 186.64V186.268C115.439 185.809 115.336 185.467 115.134 185.245C114.938 185.026 114.622 184.913 114.19 184.913C113.692 184.913 113.134 185.065 112.516 185.364L112.237 184.687C112.53 184.527 112.849 184.405 113.194 184.315C113.539 184.219 113.888 184.169 114.243 184.169C114.951 184.169 115.472 184.328 115.811 184.647C116.147 184.959 116.316 185.457 116.316 186.148V190.187H115.652ZM113.632 189.549C114.19 189.549 114.629 189.4 114.948 189.097C115.266 188.789 115.426 188.36 115.426 187.809V187.277L114.522 187.317C113.812 187.344 113.3 187.457 112.981 187.649C112.669 187.845 112.516 188.151 112.516 188.566C112.516 188.885 112.613 189.131 112.809 189.297C113.001 189.466 113.277 189.549 113.632 189.549Z" fill="white"/>
<path d="M118.797 184.275H119.753L121.055 187.649C121.337 188.42 121.51 188.975 121.573 189.31H121.626C121.669 189.124 121.766 188.812 121.919 188.367C122.068 187.925 122.556 186.56 123.38 184.275H124.336L121.799 191.01C121.55 191.675 121.258 192.143 120.922 192.419C120.583 192.701 120.168 192.844 119.673 192.844C119.408 192.844 119.142 192.811 118.876 192.751V192.033C119.069 192.077 119.288 192.1 119.527 192.1C120.145 192.1 120.59 191.754 120.856 191.064L121.175 190.213L118.797 184.275Z" fill="white"/>
<path d="M133.217 189.549C133.376 189.549 133.529 189.542 133.682 189.522C133.831 189.496 133.948 189.469 134.027 189.443V190.134C133.928 190.18 133.788 190.213 133.602 190.24C133.416 190.273 133.247 190.293 133.097 190.293C131.945 190.293 131.37 189.692 131.37 188.486V184.966H130.533V184.541L131.37 184.169L131.756 182.907H132.274V184.275H133.988V184.966H132.274V188.446C132.274 188.802 132.357 189.077 132.526 189.27C132.692 189.456 132.925 189.549 133.217 189.549Z" fill="white"/>
<path d="M140.826 190.187V186.361C140.826 185.883 140.713 185.524 140.494 185.285C140.282 185.046 139.94 184.926 139.471 184.926C138.85 184.926 138.395 185.095 138.103 185.431C137.817 185.77 137.678 186.321 137.678 187.091V190.187H136.788V181.791H137.678V184.328C137.678 184.64 137.664 184.893 137.638 185.085H137.691C137.867 184.803 138.116 184.581 138.435 184.421C138.76 184.255 139.132 184.169 139.551 184.169C140.275 184.169 140.82 184.341 141.185 184.687C141.547 185.032 141.73 185.584 141.73 186.334V190.187H140.826Z" fill="white"/>
<path d="M147.836 184.169C148.092 184.169 148.328 184.189 148.54 184.222L148.421 185.059C148.171 185.006 147.956 184.979 147.77 184.979C147.291 184.979 146.879 185.175 146.534 185.564C146.195 185.956 146.029 186.437 146.029 187.012V190.187H145.139V184.275H145.87L145.976 185.364H146.016C146.235 184.986 146.501 184.693 146.813 184.488C147.122 184.275 147.464 184.169 147.836 184.169Z" fill="white"/>
<path d="M156.321 187.224C156.321 188.191 156.075 188.945 155.59 189.483C155.102 190.024 154.428 190.293 153.571 190.293C153.046 190.293 152.578 190.17 152.162 189.921C151.754 189.675 151.438 189.32 151.219 188.858C150.997 188.39 150.887 187.845 150.887 187.224C150.887 186.261 151.126 185.51 151.605 184.979C152.089 184.441 152.76 184.169 153.611 184.169C154.441 184.169 155.102 184.444 155.59 184.992C156.075 185.544 156.321 186.288 156.321 187.224ZM151.817 187.224C151.817 187.978 151.967 188.553 152.269 188.951C152.568 189.35 153.013 189.549 153.597 189.549C154.182 189.549 154.624 189.356 154.926 188.965C155.235 188.566 155.391 187.988 155.391 187.224C155.391 186.474 155.235 185.902 154.926 185.51C154.624 185.122 154.175 184.926 153.584 184.926C152.999 184.926 152.554 185.122 152.255 185.51C151.963 185.892 151.817 186.464 151.817 187.224Z" fill="white"/>
<path d="M160.3 184.275V188.114C160.3 188.593 160.406 188.951 160.619 189.19C160.838 189.43 161.183 189.549 161.655 189.549C162.273 189.549 162.724 189.383 163.01 189.044C163.302 188.699 163.448 188.148 163.448 187.384V184.275H164.339V190.187H163.608L163.475 189.39H163.422C163.236 189.682 162.977 189.908 162.651 190.067C162.332 190.217 161.964 190.293 161.549 190.293C160.821 190.293 160.28 190.127 159.928 189.788C159.573 189.443 159.397 188.895 159.397 188.141V184.275H160.3Z" fill="white"/>
<path d="M172.65 184.275V184.833L171.547 184.966C171.654 185.092 171.747 185.255 171.826 185.457C171.906 185.663 171.946 185.892 171.946 186.148C171.946 186.733 171.747 187.198 171.348 187.543C170.95 187.888 170.405 188.061 169.714 188.061C169.535 188.061 169.372 188.045 169.223 188.008C168.841 188.214 168.651 188.47 168.651 188.779C168.651 188.938 168.718 189.058 168.851 189.137C168.983 189.21 169.213 189.244 169.541 189.244H170.578C171.222 189.244 171.714 189.383 172.052 189.655C172.398 189.921 172.57 190.31 172.57 190.824C172.57 191.479 172.308 191.98 171.787 192.326C171.262 192.671 170.498 192.844 169.488 192.844C168.718 192.844 168.12 192.698 167.695 192.405C167.276 192.12 167.07 191.718 167.07 191.196C167.07 190.831 167.183 190.519 167.416 190.253C167.645 189.997 167.967 189.821 168.386 189.722C168.233 189.652 168.107 189.546 168 189.403C167.901 189.263 167.854 189.094 167.854 188.898C167.854 188.686 167.911 188.5 168.027 188.34C168.14 188.174 168.323 188.015 168.572 187.862C168.259 187.739 168.007 187.526 167.814 187.224C167.628 186.925 167.535 186.58 167.535 186.188C167.535 185.544 167.728 185.046 168.12 184.7C168.509 184.348 169.057 184.169 169.767 184.169C170.076 184.169 170.355 184.205 170.604 184.275H172.65ZM167.934 191.183C167.934 191.502 168.067 191.741 168.333 191.901C168.605 192.067 168.997 192.153 169.502 192.153C170.252 192.153 170.807 192.04 171.162 191.821C171.524 191.598 171.707 191.293 171.707 190.904C171.707 190.585 171.607 190.363 171.415 190.24C171.219 190.117 170.847 190.054 170.299 190.054H169.223C168.814 190.054 168.495 190.154 168.266 190.346C168.044 190.539 167.934 190.818 167.934 191.183ZM168.412 186.161C168.412 186.58 168.525 186.892 168.758 187.105C168.997 187.317 169.322 187.424 169.741 187.424C170.618 187.424 171.056 186.998 171.056 186.148C171.056 185.265 170.611 184.82 169.727 184.82C169.309 184.82 168.987 184.936 168.758 185.165C168.525 185.388 168.412 185.72 168.412 186.161Z" fill="white"/>
<path d="M179.476 190.187V186.361C179.476 185.883 179.363 185.524 179.144 185.285C178.931 185.046 178.589 184.926 178.121 184.926C177.5 184.926 177.045 185.095 176.753 185.431C176.467 185.77 176.328 186.321 176.328 187.091V190.187H175.438V181.791H176.328V184.328C176.328 184.64 176.314 184.893 176.288 185.085H176.341C176.517 184.803 176.766 184.581 177.085 184.421C177.41 184.255 177.782 184.169 178.201 184.169C178.925 184.169 179.47 184.341 179.835 184.687C180.197 185.032 180.38 185.584 180.38 186.334V190.187H179.476Z" fill="white"/>
<path d="M189.106 187.158C189.265 186.939 189.498 186.65 189.81 186.294L191.723 184.275H192.786L190.395 186.786L192.959 190.187H191.869L189.783 187.397L189.106 187.968V190.187H188.229V181.791H189.106V186.241C189.106 186.437 189.093 186.743 189.066 187.158H189.106Z" fill="white"/>
<path d="M199.637 190.187V186.361C199.637 185.882 199.524 185.524 199.305 185.285C199.093 185.046 198.75 184.926 198.282 184.926C197.661 184.926 197.206 185.095 196.914 185.431C196.628 185.76 196.489 186.308 196.489 187.078V190.187H195.599V184.275H196.316L196.462 185.085H196.515C196.691 184.793 196.944 184.567 197.273 184.408C197.608 184.248 197.98 184.169 198.388 184.169C199.096 184.169 199.631 184.341 199.996 184.687C200.358 185.026 200.541 185.574 200.541 186.334V190.187H199.637Z" fill="white"/>
<path d="M209.052 187.224C209.052 188.191 208.806 188.945 208.321 189.483C207.833 190.024 207.159 190.293 206.302 190.293C205.777 190.293 205.309 190.17 204.893 189.921C204.485 189.675 204.169 189.32 203.95 188.858C203.728 188.39 203.618 187.845 203.618 187.224C203.618 186.261 203.857 185.51 204.335 184.979C204.82 184.441 205.491 184.169 206.342 184.169C207.172 184.169 207.833 184.444 208.321 184.992C208.806 185.544 209.052 186.288 209.052 187.224ZM204.548 187.224C204.548 187.978 204.698 188.553 205 188.951C205.299 189.35 205.744 189.549 206.328 189.549C206.913 189.549 207.354 189.356 207.657 188.965C207.966 188.566 208.122 187.988 208.122 187.224C208.122 186.474 207.966 185.902 207.657 185.51C207.354 185.122 206.906 184.926 206.315 184.926C205.73 184.926 205.285 185.122 204.986 185.51C204.694 185.892 204.548 186.464 204.548 187.224Z" fill="white"/>
<path d="M224.433 190.435H223.543V182.039H224.433V190.435Z" fill="white"/>
<path d="M229.801 190.449C228.924 190.449 228.234 190.184 227.729 189.652C227.224 189.121 226.971 188.383 226.971 187.434C226.971 186.477 227.204 185.72 227.676 185.162C228.144 184.604 228.772 184.325 229.562 184.325C230.306 184.325 230.891 184.571 231.316 185.056C231.747 185.544 231.967 186.185 231.967 186.982V187.553H227.901C227.918 188.244 228.091 188.772 228.42 189.134C228.755 189.489 229.223 189.665 229.828 189.665C230.465 189.665 231.093 189.533 231.714 189.267V190.064C231.395 190.207 231.093 190.303 230.811 190.356C230.535 190.416 230.2 190.449 229.801 190.449ZM229.549 185.069C229.077 185.069 228.702 185.225 228.42 185.534C228.134 185.846 227.968 186.275 227.915 186.823H231.01C231.01 186.258 230.881 185.823 230.625 185.521C230.376 185.222 230.017 185.069 229.549 185.069Z" fill="white"/>
<path d="M239.328 189.638H239.275C238.857 190.243 238.239 190.542 237.415 190.542C236.645 190.542 236.04 190.283 235.609 189.758C235.184 189.226 234.971 188.476 234.971 187.499C234.971 186.516 235.184 185.759 235.609 185.228C236.04 184.69 236.645 184.417 237.415 184.417C238.219 184.417 238.837 184.706 239.262 185.281H239.328L239.302 184.856L239.275 184.444V182.039H240.165V190.435H239.448L239.328 189.638ZM237.535 189.798C238.146 189.798 238.588 189.632 238.863 189.293C239.136 188.957 239.275 188.423 239.275 187.685V187.499C239.275 186.659 239.133 186.061 238.85 185.706C238.575 185.344 238.133 185.161 237.522 185.161C236.997 185.161 236.595 185.367 236.313 185.772C236.037 186.181 235.901 186.756 235.901 187.499C235.901 188.263 236.037 188.838 236.313 189.226C236.585 189.608 236.994 189.798 237.535 189.798Z" fill="white"/>
<path d="M248.55 184.431V184.989L247.448 185.122C247.554 185.248 247.647 185.411 247.726 185.614C247.806 185.82 247.846 186.049 247.846 186.304C247.846 186.889 247.647 187.354 247.248 187.699C246.85 188.045 246.305 188.217 245.614 188.217C245.435 188.217 245.272 188.201 245.123 188.164C244.741 188.37 244.551 188.626 244.551 188.935C244.551 189.094 244.618 189.214 244.751 189.294C244.884 189.367 245.113 189.4 245.442 189.4H246.478C247.122 189.4 247.614 189.539 247.952 189.812C248.298 190.077 248.47 190.466 248.47 190.981C248.47 191.635 248.208 192.136 247.687 192.482C247.162 192.827 246.398 193 245.388 193C244.618 193 244.02 192.854 243.595 192.562C243.176 192.276 242.971 191.874 242.971 191.353C242.971 190.987 243.083 190.675 243.316 190.409C243.545 190.154 243.867 189.978 244.286 189.878C244.133 189.808 244.007 189.702 243.9 189.559C243.801 189.42 243.754 189.25 243.754 189.054C243.754 188.842 243.811 188.656 243.927 188.496C244.04 188.33 244.223 188.171 244.472 188.018C244.16 187.895 243.907 187.683 243.714 187.38C243.528 187.082 243.435 186.736 243.435 186.344C243.435 185.7 243.628 185.202 244.02 184.856C244.409 184.504 244.957 184.325 245.667 184.325C245.976 184.325 246.255 184.361 246.504 184.431H248.55ZM243.834 191.339C243.834 191.658 243.967 191.897 244.233 192.057C244.505 192.223 244.897 192.309 245.402 192.309C246.152 192.309 246.707 192.196 247.062 191.977C247.424 191.755 247.607 191.449 247.607 191.06C247.607 190.742 247.507 190.519 247.315 190.396C247.119 190.273 246.747 190.21 246.199 190.21H245.123C244.714 190.21 244.395 190.31 244.166 190.502C243.944 190.695 243.834 190.974 243.834 191.339ZM244.312 186.318C244.312 186.736 244.425 187.048 244.658 187.261C244.897 187.473 245.222 187.58 245.641 187.58C246.518 187.58 246.956 187.155 246.956 186.304C246.956 185.421 246.511 184.976 245.627 184.976C245.209 184.976 244.887 185.092 244.658 185.321C244.425 185.544 244.312 185.876 244.312 186.318Z" fill="white"/>
<path d="M253.8 190.449C252.923 190.449 252.232 190.184 251.727 189.652C251.222 189.121 250.97 188.383 250.97 187.434C250.97 186.477 251.203 185.72 251.674 185.162C252.142 184.604 252.77 184.325 253.561 184.325C254.305 184.325 254.889 184.571 255.314 185.056C255.746 185.544 255.965 186.185 255.965 186.982V187.553H251.9C251.917 188.244 252.089 188.772 252.418 189.134C252.754 189.489 253.222 189.665 253.826 189.665C254.464 189.665 255.092 189.533 255.713 189.267V190.064C255.394 190.207 255.092 190.303 254.809 190.356C254.534 190.416 254.198 190.449 253.8 190.449ZM253.547 185.069C253.076 185.069 252.7 185.225 252.418 185.534C252.132 185.846 251.966 186.275 251.913 186.823H255.009C255.009 186.258 254.879 185.823 254.623 185.521C254.374 185.222 254.016 185.069 253.547 185.069Z" fill="white"/>
<path d="M217.775 190.237L216.685 186.769C216.622 186.557 216.499 186.075 216.313 185.321H216.26C216.117 185.952 215.994 186.437 215.888 186.783L214.772 190.237H213.736L212.115 184.325H213.058C213.437 185.813 213.726 186.949 213.922 187.726C214.125 188.496 214.241 189.015 214.267 189.28H214.321C214.354 189.078 214.417 188.815 214.506 188.496C214.593 188.171 214.669 187.909 214.732 187.713L215.822 184.325H216.791L217.854 187.713C218.057 188.334 218.193 188.855 218.266 189.28H218.306C218.323 189.147 218.362 188.948 218.426 188.682C218.485 188.41 218.857 186.955 219.541 184.325H220.471L218.837 190.237H217.775Z" fill="white"/>
</svg>
