<svg width="269" height="240" viewBox="0 0 269 240" fill="none" xmlns="http://www.w3.org/2000/svg">
<path d="M267.206 150L261.554 155.621" stroke="#006666" stroke-width="2" stroke-miterlimit="10" stroke-linecap="round" stroke-linejoin="round"/>
<path d="M267.206 155.621L261.554 150" stroke="#006666" stroke-width="2" stroke-miterlimit="10" stroke-linecap="round" stroke-linejoin="round"/>
<path d="M8.99317 150.619L1.00002 150.619" stroke="#006666" stroke-width="2" stroke-miterlimit="10" stroke-linecap="round" stroke-linejoin="round"/>
<path d="M4.9975 154.603L4.9975 146.645" stroke="#006666" stroke-width="2" stroke-miterlimit="10" stroke-linecap="round" stroke-linejoin="round"/>
<path d="M189.412 23.6612C186.735 23.6612 184.554 21.5019 184.554 18.8306C184.554 16.1687 186.726 14 189.412 14C192.089 14 194.269 16.1593 194.269 18.8306C194.26 21.5019 192.089 23.6612 189.412 23.6612Z" stroke="#006666" stroke-width="2" stroke-miterlimit="10" stroke-linecap="round" stroke-linejoin="round"/>
<path d="M94.4118 238.661C91.7349 238.661 89.5541 236.502 89.5541 233.831C89.5541 231.169 91.7256 229 94.4118 229C97.0887 229 99.2695 231.159 99.2695 233.831C99.2601 236.502 97.0887 238.661 94.4118 238.661Z" stroke="#006666" stroke-width="2" stroke-miterlimit="10" stroke-linecap="round" stroke-linejoin="round"/>
<path d="M54.5952 1.74976C54.5952 2.71599 55.3829 3.49927 56.3545 3.49927C57.3262 3.49927 58.1139 2.71599 58.1139 1.74976C58.1139 0.783529 57.3262 0.000244106 56.3545 0.000244064C55.3829 0.000244021 54.5952 0.783528 54.5952 1.74976Z" fill="#66B2B2"/>
<path d="M54.5952 13.9703C54.5952 14.9366 55.3829 15.7199 56.3545 15.7199C57.3262 15.7199 58.1139 14.9366 58.1139 13.9703C58.1139 13.0041 57.3262 12.2208 56.3545 12.2208C55.3829 12.2208 54.5952 13.0041 54.5952 13.9703Z" fill="#66B2B2"/>
<path d="M54.5952 26.1799C54.5952 27.1462 55.3829 27.9294 56.3545 27.9294C57.3262 27.9294 58.1139 27.1462 58.1139 26.1799C58.1139 25.2137 57.3262 24.4304 56.3545 24.4304C55.3829 24.4304 54.5952 25.2137 54.5952 26.1799Z" fill="#66B2B2"/>
<path d="M54.5952 38.4001C54.5952 39.3664 55.3829 40.1497 56.3545 40.1497C57.3262 40.1497 58.1139 39.3664 58.1139 38.4001C58.1139 37.4339 57.3262 36.6506 56.3545 36.6506C55.3829 36.6506 54.5952 37.4339 54.5952 38.4001Z" fill="#66B2B2"/>
<path d="M54.5952 50.6107C54.5952 51.5769 55.3829 52.3602 56.3545 52.3602C57.3262 52.3602 58.1139 51.5769 58.1139 50.6107C58.1139 49.6445 57.3262 48.8612 56.3545 48.8612C55.3829 48.8612 54.5952 49.6445 54.5952 50.6107Z" fill="#66B2B2"/>
<path d="M42.3152 1.74951C42.3152 2.71574 43.1029 3.49903 44.0745 3.49903C45.0462 3.49903 45.8339 2.71574 45.8339 1.74951C45.8339 0.783284 45.0462 -3.44304e-08 44.0745 -7.69023e-08C43.1029 -1.19374e-07 42.3152 0.783284 42.3152 1.74951Z" fill="#66B2B2"/>
<path d="M42.3152 13.9702C42.3152 14.9364 43.1029 15.7197 44.0745 15.7197C45.0462 15.7197 45.8339 14.9364 45.8339 13.9702C45.8339 13.004 45.0462 12.2207 44.0745 12.2207C43.1029 12.2207 42.3152 13.004 42.3152 13.9702Z" fill="#66B2B2"/>
<path d="M42.3152 26.1802C42.3152 27.1464 43.1029 27.9297 44.0745 27.9297C45.0462 27.9297 45.8339 27.1464 45.8339 26.1802C45.8339 25.2139 45.0462 24.4307 44.0745 24.4307C43.1029 24.4307 42.3152 25.2139 42.3152 26.1802Z" fill="#66B2B2"/>
<path d="M42.3152 38.4004C42.3152 39.3666 43.1029 40.1499 44.0745 40.1499C45.0462 40.1499 45.8339 39.3666 45.8339 38.4004C45.8339 37.4342 45.0462 36.6509 44.0745 36.6509C43.1029 36.6509 42.3152 37.4342 42.3152 38.4004Z" fill="#66B2B2"/>
<path d="M42.3152 50.6108C42.3152 51.5771 43.1029 52.3603 44.0745 52.3603C45.0462 52.3603 45.8339 51.5771 45.8339 50.6108C45.8339 49.6446 45.0462 48.8613 44.0745 48.8613C43.1029 48.8613 42.3152 49.6446 42.3152 50.6108Z" fill="#66B2B2"/>
<path d="M30.026 1.74951C30.026 2.71574 30.8136 3.49903 31.7853 3.49903C32.7569 3.49903 33.5446 2.71574 33.5446 1.74951C33.5446 0.783284 32.7569 -3.44305e-08 31.7853 -7.69024e-08C30.8136 -1.19374e-07 30.026 0.783284 30.026 1.74951Z" fill="#66B2B2"/>
<path d="M30.026 13.9702C30.026 14.9364 30.8136 15.7197 31.7853 15.7197C32.7569 15.7197 33.5446 14.9364 33.5446 13.9702C33.5446 13.004 32.7569 12.2207 31.7853 12.2207C30.8136 12.2207 30.026 13.004 30.026 13.9702Z" fill="#66B2B2"/>
<path d="M30.026 26.1802C30.026 27.1464 30.8136 27.9297 31.7853 27.9297C32.7569 27.9297 33.5446 27.1464 33.5446 26.1802C33.5446 25.2139 32.7569 24.4307 31.7853 24.4307C30.8136 24.4307 30.026 25.2139 30.026 26.1802Z" fill="#66B2B2"/>
<path d="M30.026 38.4004C30.026 39.3666 30.8136 40.1499 31.7853 40.1499C32.7569 40.1499 33.5446 39.3666 33.5446 38.4004C33.5446 37.4342 32.7569 36.6509 31.7853 36.6509C30.8136 36.6509 30.026 37.4342 30.026 38.4004Z" fill="#66B2B2"/>
<path d="M30.026 50.6108C30.026 51.5771 30.8136 52.3603 31.7853 52.3603C32.7569 52.3603 33.5446 51.5771 33.5446 50.6108C33.5446 49.6446 32.7569 48.8613 31.7853 48.8613C30.8136 48.8613 30.026 49.6446 30.026 50.6108Z" fill="#66B2B2"/>
<path d="M17.7462 1.74951C17.7462 2.71574 18.5339 3.49903 19.5055 3.49903C20.4772 3.49903 21.2648 2.71574 21.2648 1.74951C21.2648 0.783284 20.4772 -3.44305e-08 19.5055 -7.69025e-08C18.5339 -1.19374e-07 17.7462 0.783284 17.7462 1.74951Z" fill="#66B2B2"/>
<path d="M17.7462 13.9702C17.7462 14.9364 18.5339 15.7197 19.5055 15.7197C20.4772 15.7197 21.2648 14.9364 21.2648 13.9702C21.2648 13.004 20.4772 12.2207 19.5055 12.2207C18.5339 12.2207 17.7462 13.004 17.7462 13.9702Z" fill="#66B2B2"/>
<path d="M17.7462 26.1802C17.7462 27.1464 18.5339 27.9297 19.5055 27.9297C20.4772 27.9297 21.2648 27.1464 21.2648 26.1802C21.2648 25.2139 20.4772 24.4307 19.5055 24.4307C18.5339 24.4307 17.7462 25.2139 17.7462 26.1802Z" fill="#66B2B2"/>
<path d="M17.7462 38.4004C17.7462 39.3666 18.5339 40.1499 19.5055 40.1499C20.4772 40.1499 21.2648 39.3666 21.2648 38.4004C21.2648 37.4342 20.4772 36.6509 19.5055 36.6509C18.5339 36.6509 17.7462 37.4342 17.7462 38.4004Z" fill="#66B2B2"/>
<path d="M17.7462 50.6108C17.7462 51.5771 18.5339 52.3603 19.5055 52.3603C20.4772 52.3603 21.2648 51.5771 21.2648 50.6108C21.2648 49.6446 20.4772 48.8613 19.5055 48.8613C18.5339 48.8613 17.7462 49.6446 17.7462 50.6108Z" fill="#66B2B2"/>
<path d="M249.035 208.75C249.035 209.716 249.823 210.499 250.795 210.499C251.766 210.499 252.554 209.716 252.554 208.75C252.554 207.783 251.766 207 250.795 207C249.823 207 249.035 207.783 249.035 208.75Z" fill="#66B2B2"/>
<path d="M249.036 220.96C249.036 221.926 249.823 222.709 250.795 222.709C251.766 222.709 252.554 221.926 252.554 220.96C252.554 219.994 251.766 219.21 250.795 219.21C249.823 219.21 249.036 219.994 249.036 220.96Z" fill="#66B2B2"/>
<path d="M249.036 233.18C249.036 234.146 249.823 234.929 250.795 234.929C251.766 234.929 252.554 234.146 252.554 233.18C252.554 232.213 251.766 231.43 250.795 231.43C249.823 231.43 249.036 232.213 249.036 233.18Z" fill="#66B2B2"/>
<path d="M236.746 208.75C236.746 209.716 237.534 210.499 238.506 210.499C239.477 210.499 240.265 209.716 240.265 208.75C240.265 207.783 239.477 207 238.506 207C237.534 207 236.746 207.783 236.746 208.75Z" fill="#66B2B2"/>
<path d="M236.746 220.96C236.746 221.926 237.534 222.709 238.506 222.709C239.477 222.709 240.265 221.926 240.265 220.96C240.265 219.994 239.477 219.21 238.506 219.21C237.534 219.21 236.746 219.994 236.746 220.96Z" fill="#66B2B2"/>
<path d="M236.746 233.18C236.746 234.146 237.534 234.93 238.506 234.93C239.477 234.93 240.265 234.146 240.265 233.18C240.265 232.214 239.477 231.431 238.506 231.431C237.534 231.431 236.746 232.214 236.746 233.18Z" fill="#66B2B2"/>
</svg>
