<svg width="82" height="60" viewBox="0 0 82 60" fill="none" xmlns="http://www.w3.org/2000/svg">
<path d="M5.08472 25.0847V50.1695H17.8813C24.9152 50.1695 30.6779 50.1186 30.6779 50.0339C30.6779 49.9661 30.4068 49.5085 30.0847 49.017L29.4745 48.1356H18.2203H6.94912V25V1.86441H34.9152H62.8813V10.8305V19.7966L63.2712 19.8983C63.4745 19.9492 63.9322 20 64.2881 20H64.9152V10V3.8147e-06H35H5.08472V25.0847Z" fill="white"/>
<path d="M26.9491 11.7797V12.8813H37.7118H48.4745V11.7797V10.678H37.7118H26.9491V11.7797Z" fill="white"/>
<path d="M18.017 15.7627L17.4916 16.0848L22.8136 26.3899C25.7289 32.0509 28.1526 36.7627 28.1865 36.8475C28.2373 37 29.3221 36.5085 29.3221 36.3221C29.3221 36.2204 19.9831 18.0678 19.0678 16.4068L18.5424 15.4407L18.017 15.7627Z" fill="white"/>
<path d="M26.9491 18.2203V19.322H37.7118H48.4745V18.2203V17.1186H37.7118H26.9491V18.2203Z" fill="white"/>
<path d="M61.5254 22.5424C55.9661 23.4068 52.1525 28.6441 53.1017 34.1017C53.4915 36.3051 54.322 37.9153 55.9152 39.5085C59.0678 42.661 63.4407 43.3898 67.4237 41.4237C69.7457 40.2881 71.7796 37.9153 72.5424 35.4915C73.8644 31.2203 72.1695 26.5254 68.4237 24.0678C66.5423 22.8475 63.6949 22.2034 61.5254 22.5424Z" fill="white"/>
<path d="M26.9491 24.661V25.7627H37.7118H48.4745V24.661V23.5593H37.7118H26.9491V24.661Z" fill="white"/>
<path d="M30.1356 36.7797C28.678 37.2204 27.7966 38.3559 27.7966 39.8136C27.7966 40.3051 27.9153 40.9153 28.0509 41.1865C28.4068 41.8814 37.2543 55.4407 37.5932 55.8305C38.0678 56.339 39.0848 56.7797 39.8305 56.7797C40.2712 56.7797 41.4068 56.4407 42.8814 55.8644C44.1865 55.3729 45.2543 54.9831 45.2543 55.017C45.2543 55.0339 45.1526 55.5763 45.017 56.2203C44.8814 56.8644 44.7119 57.9661 44.6441 58.6949L44.5254 60H62.9661H81.4068L81.2882 58.5424C80.7797 52.2542 76.8814 46.4915 71.2034 43.661C68.8136 42.4576 68.6271 42.4237 67.4576 42.9492C66.3051 43.4746 64.2712 43.8983 62.9661 43.8983C61.661 43.8983 59.6271 43.4746 58.4746 42.9492L57.4576 42.4915L56.661 42.7966C55.2712 43.322 53.356 44.339 52.2882 45.1187C51.4915 45.6949 50.2034 46.2712 46.4915 47.6949C43.8475 48.6949 41.5593 49.5593 41.3899 49.6102C41.1526 49.661 40.3221 48.4915 37.2373 43.7458C35.1017 40.4746 33.1526 37.6271 32.8644 37.3898C32.3729 36.9831 31.3729 36.5932 30.8475 36.6271C30.7119 36.6271 30.3899 36.6949 30.1356 36.7797Z" fill="white"/>
<path d="M0 53.6441V56.2712H17.3898C31.2373 56.2712 34.7458 56.2203 34.6441 56.0508C34.5593 55.9491 33.7966 54.7627 32.9322 53.4237L31.3559 51.0169H15.678H0V53.6441Z" fill="white"/>
</svg>
