<svg width="59" height="40" viewBox="0 0 59 40" fill="none" xmlns="http://www.w3.org/2000/svg">
<path d="M19.0819 14.5319V20.2428L29.2196 25.6951L39.3582 20.2428V14.5319L29.2196 19.9852L19.0819 14.5319ZM29.2196 0L13.2886 8.56533L29.2196 17.1307L42.2544 10.1209V19.9852H45.1506V8.56533L29.2196 0Z" fill="white"/>
<path d="M14.7194 33.8415H13.5735V29.7679H14.7194V33.8415ZM14.1446 29.2105C13.9684 29.2105 13.8192 29.151 13.6959 29.0309C13.5744 28.909 13.5142 28.7595 13.5142 28.5835C13.5142 28.4103 13.5744 28.2627 13.6959 28.1399C13.8192 28.0152 13.9684 27.9529 14.1446 27.9529C14.3226 27.9529 14.4718 28.0152 14.5933 28.1399C14.7138 28.2627 14.775 28.4103 14.775 28.5835C14.775 28.7595 14.7138 28.909 14.5933 29.0309C14.4718 29.151 14.3226 29.2105 14.1446 29.2105Z" fill="white"/>
<path d="M20.7892 28.0189H21.9795V33.8415H20.7224V29.9989L19.3207 31.9459H18.3157L16.8954 30.0539V33.8415H15.6309V28.0189H16.8287L18.82 30.7029L20.7892 28.0189Z" fill="white"/>
<path d="M24.8078 29.6542C25.1017 29.6542 25.3789 29.711 25.6385 29.8228C25.8999 29.9328 26.128 30.0859 26.3208 30.2812C26.5136 30.4746 26.6666 30.7019 26.7806 30.9632C26.8938 31.2226 26.9512 31.5003 26.9512 31.7955C26.9512 32.0916 26.8938 32.3703 26.7806 32.6315C26.6666 32.8909 26.5136 33.1183 26.3208 33.3135C26.128 33.5069 25.8999 33.66 25.6385 33.7718C25.3789 33.8837 25.1017 33.9405 24.8078 33.9405C24.5084 33.9405 24.2293 33.8837 23.9697 33.7718C23.7101 33.66 23.4821 33.5069 23.2874 33.3135C23.0946 33.1183 22.9407 32.8909 22.8276 32.6315C22.7135 32.3703 22.657 32.0916 22.657 31.7955C22.657 31.5003 22.7135 31.2226 22.8276 30.9632C22.9407 30.7019 23.0946 30.4746 23.2874 30.2812C23.4821 30.0859 23.7101 29.9328 23.9697 29.8228C24.2293 29.711 24.5084 29.6542 24.8078 29.6542ZM24.8078 32.9468C24.9459 32.9468 25.0748 32.9203 25.1935 32.8662C25.314 32.8103 25.4206 32.7342 25.5124 32.6388C25.6033 32.5435 25.6756 32.4289 25.7275 32.2942C25.7794 32.1603 25.8054 32.0109 25.8054 31.8468C25.8054 31.6809 25.7794 31.5269 25.7275 31.3848C25.6756 31.2437 25.6033 31.1199 25.5124 31.0145C25.4206 30.9073 25.314 30.822 25.1935 30.7578C25.0748 30.6946 24.9459 30.6625 24.8078 30.6625C24.6688 30.6625 24.539 30.6946 24.4184 30.7578C24.297 30.822 24.1904 30.9073 24.0995 31.0145C24.0077 31.1199 23.9345 31.2437 23.8807 31.3848C23.8288 31.5269 23.8029 31.6809 23.8029 31.8468C23.8029 32.0109 23.8288 32.1603 23.8807 32.2942C23.9345 32.4289 24.0077 32.5435 24.0995 32.6388C24.1904 32.7342 24.297 32.8103 24.4184 32.8662C24.539 32.9203 24.6688 32.9468 24.8078 32.9468Z" fill="white"/>
<path d="M29.735 29.7678C29.888 29.7678 30.0585 29.7898 30.2467 29.8338C30.4368 29.8778 30.6148 29.9603 30.7807 30.0795C30.9458 30.1996 31.0858 30.3673 31.1998 30.5818C31.3129 30.7945 31.3704 31.0713 31.3704 31.4105V33.8415H30.2171V31.4508C30.2171 31.3262 30.1958 31.2198 30.154 31.1318C30.1114 31.0438 30.0558 30.9742 29.9872 30.9228C29.9176 30.8697 29.8388 30.8302 29.7498 30.8055C29.6608 30.7817 29.5728 30.7688 29.4865 30.7688C29.4124 30.7688 29.3317 30.7817 29.2455 30.8055C29.1611 30.8302 29.0805 30.8706 29.0045 30.9265C28.9303 30.9806 28.8682 31.0512 28.819 31.1392C28.769 31.2272 28.7449 31.3317 28.7449 31.4508V33.8415H27.599V29.7678H28.578L28.7449 30.0795C28.8784 29.9869 29.0276 29.9127 29.1936 29.8558C29.3586 29.7972 29.5394 29.7678 29.735 29.7678Z" fill="white"/>
<path d="M33.372 33.8415H32.2261V29.7679H33.372V33.8415ZM32.7972 29.2105C32.621 29.2105 32.4718 29.151 32.3485 29.0309C32.227 28.909 32.1667 28.7595 32.1667 28.5835C32.1667 28.4103 32.227 28.2627 32.3485 28.1399C32.4718 28.0152 32.621 27.9529 32.7972 27.9529C32.9752 27.9529 33.1244 28.0152 33.2459 28.1399C33.3664 28.2627 33.4276 28.4103 33.4276 28.5835C33.4276 28.7595 33.3664 28.909 33.2459 29.0309C33.1244 29.151 32.9752 29.2105 32.7972 29.2105Z" fill="white"/>
<path d="M35.7891 32.3785C35.7891 32.5719 35.8484 32.7214 35.9671 32.8259C36.0858 32.9285 36.2415 32.9799 36.4343 32.9799C36.5901 32.9799 36.7458 32.9496 36.9016 32.8882V33.8415C36.7625 33.8855 36.616 33.9222 36.4603 33.9515C36.3045 33.9827 36.1497 33.9992 35.9968 33.9992C35.8188 33.9992 35.6491 33.9772 35.4887 33.9332C35.3274 33.8892 35.1828 33.814 35.0548 33.7059C34.9288 33.5986 34.8286 33.4565 34.7545 33.2805C34.6803 33.1027 34.6432 32.8809 34.6432 32.6169V30.7762H34.0536V30.0135L34.6432 29.7679V28.8549H35.7891V29.7679H36.9016V30.7762H35.7891V32.3785Z" fill="white"/>
<path d="M39.5157 29.6542C39.8096 29.6542 40.0868 29.711 40.3464 29.8228C40.6078 29.9328 40.8359 30.0859 41.0287 30.2812C41.2215 30.4746 41.3745 30.7019 41.4885 30.9632C41.6016 31.2226 41.6591 31.5003 41.6591 31.7955C41.6591 32.0916 41.6016 32.3703 41.4885 32.6315C41.3745 32.8909 41.2215 33.1183 41.0287 33.3135C40.8359 33.5069 40.6078 33.66 40.3464 33.7718C40.0868 33.8837 39.8096 33.9405 39.5157 33.9405C39.2163 33.9405 38.9372 33.8837 38.6776 33.7718C38.418 33.66 38.19 33.5069 37.9953 33.3135C37.8025 33.1183 37.6486 32.8909 37.5355 32.6315C37.4214 32.3703 37.3649 32.0916 37.3649 31.7955C37.3649 31.5003 37.4214 31.2226 37.5355 30.9632C37.6486 30.7019 37.8025 30.4746 37.9953 30.2812C38.19 30.0859 38.418 29.9328 38.6776 29.8228C38.9372 29.711 39.2163 29.6542 39.5157 29.6542ZM39.5157 32.9468C39.6538 32.9468 39.7827 32.9203 39.9014 32.8662C40.0219 32.8103 40.1285 32.7342 40.2203 32.6388C40.3111 32.5435 40.3834 32.4289 40.4354 32.2942C40.4873 32.1603 40.5132 32.0109 40.5132 31.8468C40.5132 31.6809 40.4873 31.5269 40.4354 31.3848C40.3834 31.2437 40.3111 31.1199 40.2203 31.0145C40.1285 30.9073 40.0219 30.822 39.9014 30.7578C39.7827 30.6946 39.6538 30.6625 39.5157 30.6625C39.3766 30.6625 39.2468 30.6946 39.1263 30.7578C39.0049 30.822 38.8983 30.9073 38.8074 31.0145C38.7156 31.1199 38.6424 31.2437 38.5886 31.3848C38.5367 31.5269 38.5107 31.6809 38.5107 31.8468C38.5107 32.0109 38.5367 32.1603 38.5886 32.2942C38.6424 32.4289 38.7156 32.5435 38.8074 32.6388C38.8983 32.7342 39.0049 32.8103 39.1263 32.8662C39.2468 32.9203 39.3766 32.9468 39.5157 32.9468Z" fill="white"/>
<path d="M43.4268 30.3362C43.4833 30.2482 43.5473 30.1657 43.6196 30.0868C43.691 30.0062 43.7763 29.9347 43.8755 29.8705C43.9765 29.8072 44.0906 29.7568 44.2166 29.7202C44.3446 29.6817 44.4892 29.6615 44.6505 29.6615C44.8378 29.6615 45.0566 29.6945 45.3069 29.7605L45.1993 30.7688C45.1372 30.7597 45.0751 30.7459 45.0139 30.7285C44.9639 30.7193 44.9082 30.7102 44.8471 30.7028C44.7877 30.6937 44.733 30.6882 44.6839 30.6882C44.5059 30.6882 44.3399 30.7129 44.187 30.7615C44.0359 30.811 43.9051 30.8788 43.7939 30.9668C43.6826 31.0548 43.5936 31.1612 43.5269 31.2858C43.4601 31.4087 43.4268 31.5407 43.4268 31.6818V33.8415H42.2809V29.7678H43.3192L43.4268 30.3362Z" fill="white"/>
<path d="M0.964166 37.7861H0.545125V39.2271H0.292958V37.7861H0V37.6761L0.292958 37.5844V37.4964C0.292958 37.0931 0.470958 36.8914 0.826958 36.8914C0.913177 36.8914 1.01608 36.9098 1.13475 36.9464L1.068 37.1444C0.971583 37.1133 0.89 37.0968 0.82325 37.0968C0.726833 37.0968 0.656375 37.1288 0.611875 37.1921C0.567375 37.2535 0.545125 37.3525 0.545125 37.4891V37.5954H0.964166V37.7861Z" fill="white"/>
<path d="M1.9543 39.2271H1.70584V37.5954H1.9543V39.2271ZM1.68359 37.1518C1.68359 37.0958 1.69657 37.0546 1.72439 37.0271C1.75405 37.0005 1.78928 36.9868 1.83193 36.9868C1.87086 36.9868 1.90424 37.0005 1.93205 37.0271C1.96172 37.0546 1.97655 37.0958 1.97655 37.1518C1.97655 37.2086 1.96172 37.2498 1.93205 37.2764C1.90424 37.3039 1.87086 37.3168 1.83193 37.3168C1.78928 37.3168 1.75405 37.3039 1.72439 37.2764C1.69657 37.2498 1.68359 37.2086 1.68359 37.1518Z" fill="white"/>
<path d="M4.05141 39.2271V38.1711C4.05141 38.0391 4.01989 37.9401 3.9587 37.8741C3.89937 37.8081 3.80388 37.7751 3.67316 37.7751C3.49979 37.7751 3.37278 37.8219 3.2912 37.9144C3.21147 38.0052 3.17253 38.1564 3.17253 38.3691V39.2271H2.92407V37.5954H3.12432L3.16511 37.8191H3.17995C3.22908 37.7384 3.29954 37.6761 3.39132 37.6321C3.48496 37.5881 3.58879 37.5661 3.70282 37.5661C3.90029 37.5661 4.04955 37.6138 4.15153 37.7091C4.25259 37.8026 4.30358 37.9539 4.30358 38.1638V39.2271H4.05141Z" fill="white"/>
<path d="M6.37893 39.0071H6.36409C6.24728 39.174 6.07485 39.2565 5.84493 39.2565C5.62985 39.2565 5.46112 39.185 5.3406 39.0401C5.22193 38.8935 5.1626 38.6863 5.1626 38.4168C5.1626 38.1455 5.22193 37.9365 5.3406 37.7898C5.46112 37.6413 5.62985 37.5661 5.84493 37.5661C6.06928 37.5661 6.24172 37.6459 6.36039 37.8045H6.37893L6.37151 37.6871L6.36409 37.5735V36.9098H6.61255V39.2271H6.4123L6.37893 39.0071ZM5.8783 39.0511C6.04889 39.0511 6.17219 39.0053 6.24914 38.9118C6.32516 38.8192 6.36409 38.6716 6.36409 38.4681V38.4168C6.36409 38.1849 6.32423 38.0199 6.24543 37.9218C6.16848 37.8219 6.04518 37.7715 5.8746 37.7715C5.72812 37.7715 5.61594 37.8283 5.53714 37.9401C5.46019 38.0529 5.42218 38.2115 5.42218 38.4168C5.42218 38.6276 5.46019 38.7862 5.53714 38.8935C5.61316 38.9989 5.72719 39.0511 5.8783 39.0511Z" fill="white"/>
<path d="M8.55957 37.5955H8.82657L9.18999 38.5268C9.26879 38.7395 9.317 38.8925 9.33461 38.9851H9.34944C9.3615 38.9338 9.38838 38.8476 9.43103 38.7248C9.47275 38.6029 9.60903 38.2261 9.83894 37.5955H10.1059L9.39765 39.4545C9.32812 39.6378 9.24654 39.767 9.1529 39.8431C9.05834 39.921 8.94246 39.9605 8.80432 39.9605C8.73015 39.9605 8.65599 39.9513 8.58182 39.9348V39.7368C8.63559 39.7487 8.69678 39.7551 8.76353 39.7551C8.93597 39.7551 9.06019 39.6598 9.13436 39.4691L9.22336 39.2345L8.55957 37.5955Z" fill="white"/>
<path d="M12.2392 38.4094C12.2392 38.6762 12.1706 38.8843 12.0353 39.0328C11.899 39.1822 11.7108 39.2564 11.4716 39.2564C11.3251 39.2564 11.1944 39.2225 11.0785 39.1538C10.9645 39.0859 10.8764 38.9878 10.8152 38.8604C10.7531 38.7312 10.7225 38.5808 10.7225 38.4094C10.7225 38.1436 10.7893 37.9364 10.9228 37.7898C11.0581 37.6413 11.2454 37.5661 11.4827 37.5661C11.7145 37.5661 11.899 37.6422 12.0353 37.7934C12.1706 37.9456 12.2392 38.1509 12.2392 38.4094ZM10.9821 38.4094C10.9821 38.6175 11.0238 38.7761 11.1082 38.8861C11.1916 38.9961 11.3159 39.0511 11.479 39.0511C11.6422 39.0511 11.7655 38.9979 11.8499 38.8898C11.9361 38.7798 11.9797 38.6203 11.9797 38.4094C11.9797 38.2023 11.9361 38.0446 11.8499 37.9364C11.7655 37.8292 11.6403 37.7751 11.4753 37.7751C11.3122 37.7751 11.1879 37.8292 11.1045 37.9364C11.0229 38.0418 10.9821 38.1995 10.9821 38.4094Z" fill="white"/>
<path d="M13.3501 37.5955V38.6551C13.3501 38.7871 13.3797 38.8861 13.4391 38.9521C13.5003 39.0181 13.5967 39.0511 13.7283 39.0511C13.9008 39.0511 14.0268 39.0053 14.1066 38.9118C14.1881 38.8165 14.2289 38.6643 14.2289 38.4535V37.5955H14.4774V39.2271H14.2734L14.2364 39.0071H14.2215C14.1696 39.0878 14.0973 39.1501 14.0064 39.1941C13.9174 39.2354 13.8145 39.2565 13.6987 39.2565C13.4956 39.2565 13.3445 39.2106 13.2462 39.1171C13.147 39.0218 13.0979 38.8705 13.0979 38.6625V37.5955H13.3501Z" fill="white"/>
<path d="M16.2004 37.5661C16.2718 37.5661 16.3376 37.5716 16.397 37.5808L16.3636 37.8118C16.2941 37.7971 16.2338 37.7898 16.1819 37.7898C16.0484 37.7898 15.9334 37.8439 15.837 37.9511C15.7424 38.0593 15.6961 38.1922 15.6961 38.3508V39.2271H15.4476V37.5954H15.6516L15.6813 37.8961H15.6924C15.7536 37.7916 15.8277 37.7109 15.9149 37.6541C16.0011 37.5954 16.0966 37.5661 16.2004 37.5661Z" fill="white"/>
<path d="M19.7303 39.2271L19.4262 38.2701C19.4086 38.2115 19.3743 38.0785 19.3223 37.8705H19.3075C19.2676 38.0446 19.2333 38.1785 19.2037 38.2738L18.8922 39.2271H18.6029L18.1505 37.5955H18.4138C18.5195 38.0061 18.6001 38.3196 18.6548 38.5341C18.7114 38.7468 18.7438 38.8898 18.7513 38.9631H18.7661C18.7754 38.9072 18.793 38.8348 18.818 38.7468C18.8421 38.657 18.8634 38.5845 18.8811 38.5305L19.1851 37.5955H19.4558L19.7525 38.5305C19.8091 38.7019 19.8471 38.8458 19.8675 38.9631H19.8786C19.8832 38.9265 19.8944 38.8715 19.912 38.7981C19.9287 38.723 20.0325 38.3215 20.2235 37.5955H20.4831L20.0269 39.2271H19.7303Z" fill="white"/>
<path d="M22.2338 39.2271L22.1856 38.9961H22.1745C22.0901 39.0969 22.0076 39.1648 21.926 39.2014C21.8444 39.2381 21.7424 39.2564 21.6219 39.2564C21.456 39.2564 21.3262 39.2152 21.2325 39.1318C21.1408 39.0493 21.0953 38.9301 21.0953 38.7761C21.0953 38.4461 21.3623 38.2738 21.8963 38.2591L22.1745 38.2481V38.1454C22.1745 38.0189 22.1457 37.9245 22.0892 37.8631C22.0345 37.8026 21.9464 37.7714 21.8259 37.7714C21.6868 37.7714 21.5311 37.8136 21.3586 37.8961L21.2808 37.7091C21.3623 37.6651 21.4513 37.6312 21.5478 37.6064C21.6442 37.5799 21.7415 37.5661 21.8407 37.5661C22.0382 37.5661 22.1837 37.6101 22.2783 37.6981C22.3719 37.7843 22.4192 37.9218 22.4192 38.1124V39.2271H22.2338ZM21.6701 39.0511C21.8259 39.0511 21.9483 39.0098 22.0373 38.9264C22.1263 38.8412 22.1708 38.7229 22.1708 38.5708V38.4241L21.9186 38.4351C21.7202 38.4424 21.5774 38.4736 21.4884 38.5268C21.4013 38.5808 21.3586 38.6652 21.3586 38.7798C21.3586 38.8678 21.3855 38.9356 21.4402 38.9814C21.494 39.0282 21.5709 39.0511 21.6701 39.0511Z" fill="white"/>
<path d="M23.1117 37.5955H23.3787L23.7421 38.5268C23.8209 38.7395 23.8691 38.8925 23.8867 38.9851H23.9016C23.9136 38.9338 23.9405 38.8476 23.9832 38.7248C24.0249 38.6029 24.1612 38.2261 24.3911 37.5955H24.6581L23.9498 39.4545C23.8802 39.6378 23.7987 39.767 23.705 39.8431C23.6105 39.921 23.4946 39.9605 23.3564 39.9605C23.2823 39.9605 23.2081 39.9513 23.1339 39.9348V39.7368C23.1877 39.7487 23.2489 39.7551 23.3157 39.7551C23.4881 39.7551 23.6123 39.6598 23.6865 39.4691L23.7755 39.2345L23.1117 37.5955Z" fill="white"/>
<path d="M27.137 39.0511C27.1815 39.0511 27.2242 39.0493 27.2668 39.0438C27.3085 39.0364 27.341 39.0291 27.3632 39.0218V39.2124C27.3354 39.2253 27.2965 39.2344 27.2446 39.2418C27.1926 39.2509 27.1454 39.2564 27.1036 39.2564C26.782 39.2564 26.6216 39.0905 26.6216 38.7578V37.7861H26.3879V37.6688L26.6216 37.5661L26.7291 37.2178H26.8737V37.5954H27.3521V37.7861H26.8737V38.7468C26.8737 38.8449 26.8969 38.9209 26.9442 38.9741C26.9905 39.0254 27.0554 39.0511 27.137 39.0511Z" fill="white"/>
<path d="M29.261 39.2271V38.1711C29.261 38.0391 29.2295 37.9401 29.1683 37.8741C29.109 37.8081 29.0135 37.7751 28.8828 37.7751C28.7094 37.7751 28.5824 37.8219 28.5008 37.9145C28.4211 38.008 28.3821 38.1601 28.3821 38.3728V39.2271H28.1337V36.9098H28.3821V37.6101C28.3821 37.6963 28.3784 37.766 28.371 37.8191H28.3858C28.435 37.7412 28.5045 37.6798 28.5935 37.6358C28.6844 37.59 28.7882 37.5661 28.905 37.5661C29.1071 37.5661 29.2591 37.6138 29.3611 37.7091C29.4622 37.8045 29.5132 37.9566 29.5132 38.1638V39.2271H29.261Z" fill="white"/>
<path d="M31.2178 37.5661C31.2891 37.5661 31.355 37.5716 31.4143 37.5808L31.3809 37.8118C31.3114 37.7971 31.2511 37.7898 31.1992 37.7898C31.0657 37.7898 30.9508 37.8439 30.8543 37.9511C30.7598 38.0593 30.7134 38.1922 30.7134 38.3508V39.2271H30.465V37.5954H30.6689L30.6986 37.8961H30.7097C30.7709 37.7916 30.8451 37.7109 30.9322 37.6541C31.0184 37.5954 31.1139 37.5661 31.2178 37.5661Z" fill="white"/>
<path d="M33.5862 38.4094C33.5862 38.6762 33.5176 38.8843 33.3822 39.0328C33.2459 39.1822 33.0577 39.2564 32.8185 39.2564C32.6721 39.2564 32.5413 39.2225 32.4255 39.1538C32.3114 39.0859 32.2234 38.9878 32.1622 38.8604C32.1001 38.7312 32.0695 38.5808 32.0695 38.4094C32.0695 38.1436 32.1362 37.9364 32.2697 37.7898C32.4051 37.6413 32.5923 37.5661 32.8297 37.5661C33.0614 37.5661 33.2459 37.6422 33.3822 37.7934C33.5176 37.9456 33.5862 38.1509 33.5862 38.4094ZM32.329 38.4094C32.329 38.6175 32.3708 38.7761 32.4551 38.8861C32.5386 38.9961 32.6628 39.0511 32.826 39.0511C32.9891 39.0511 33.1124 38.9979 33.1968 38.8898C33.283 38.7798 33.3266 38.6203 33.3266 38.4094C33.3266 38.2023 33.283 38.0446 33.1968 37.9364C33.1124 37.8292 32.9873 37.7751 32.8222 37.7751C32.6591 37.7751 32.5349 37.8292 32.4514 37.9364C32.3698 38.0418 32.329 38.1995 32.329 38.4094Z" fill="white"/>
<path d="M34.6969 37.5955V38.6551C34.6969 38.7871 34.7265 38.8861 34.7859 38.9521C34.8471 39.0181 34.9435 39.0511 35.0751 39.0511C35.2476 39.0511 35.3736 39.0053 35.4534 38.9118C35.535 38.8165 35.5757 38.6643 35.5757 38.4535V37.5955H35.8242V39.2271H35.6202L35.5832 39.0071H35.5683C35.5164 39.0878 35.4441 39.1501 35.3532 39.1941C35.2642 39.2354 35.1613 39.2565 35.0455 39.2565C34.8424 39.2565 34.6913 39.2106 34.593 39.1171C34.4938 39.0218 34.4447 38.8705 34.4447 38.6625V37.5955H34.6969Z" fill="white"/>
<path d="M38.1443 37.5954V37.7494L37.8365 37.7861C37.8662 37.8209 37.8921 37.8659 37.9144 37.9218C37.9366 37.9786 37.9477 38.0419 37.9477 38.1124C37.9477 38.2738 37.8921 38.4021 37.7809 38.4974C37.6696 38.5928 37.5176 38.6404 37.3247 38.6404C37.2747 38.6404 37.2293 38.6359 37.1875 38.6258C37.0809 38.6826 37.0281 38.7532 37.0281 38.8384C37.0281 38.8824 37.0466 38.9154 37.0837 38.9374C37.1208 38.9576 37.1848 38.9668 37.2765 38.9668H37.5658C37.7456 38.9668 37.8829 39.0053 37.9774 39.0804C38.0738 39.1538 38.122 39.261 38.122 39.4031C38.122 39.5837 38.0488 39.7221 37.9032 39.8174C37.7568 39.9128 37.5435 39.9604 37.2617 39.9604C37.0466 39.9604 36.8798 39.9201 36.7611 39.8394C36.6443 39.7606 36.5868 39.6497 36.5868 39.5058C36.5868 39.4049 36.6183 39.3188 36.6832 39.2454C36.7472 39.1749 36.8371 39.1263 36.9539 39.0988C36.9113 39.0795 36.876 39.0502 36.8464 39.0108C36.8186 38.9723 36.8056 38.9255 36.8056 38.8714C36.8056 38.8128 36.8213 38.7614 36.8538 38.7174C36.8853 38.6716 36.9363 38.6276 37.0058 38.5854C36.9187 38.5515 36.8482 38.4929 36.7945 38.4094C36.7425 38.3269 36.7166 38.2316 36.7166 38.1234C36.7166 37.9456 36.7704 37.8081 36.8798 37.7128C36.9882 37.6156 37.1412 37.5661 37.3396 37.5661C37.4258 37.5661 37.5037 37.5762 37.5732 37.5954H38.1443ZM36.8278 39.5021C36.8278 39.5901 36.8649 39.6561 36.9391 39.7001C37.0151 39.7459 37.1245 39.7698 37.2654 39.7698C37.4749 39.7698 37.6298 39.7386 37.729 39.6781C37.83 39.6167 37.881 39.5324 37.881 39.4251C37.881 39.3371 37.8532 39.2757 37.7994 39.2418C37.7447 39.2079 37.6409 39.1904 37.4879 39.1904H37.1875C37.0735 39.1904 36.9845 39.2179 36.9205 39.2711C36.8584 39.3243 36.8278 39.4013 36.8278 39.5021ZM36.9613 38.1161C36.9613 38.2316 36.9929 38.3178 37.0577 38.3764C37.1245 38.4351 37.2154 38.4644 37.3322 38.4644C37.5769 38.4644 37.6993 38.3471 37.6993 38.1124C37.6993 37.8686 37.5751 37.7458 37.3285 37.7458C37.2116 37.7458 37.1217 37.7779 37.0577 37.8411C36.9929 37.9025 36.9613 37.9942 36.9613 38.1161Z" fill="white"/>
<path d="M40.0497 39.2271V38.1711C40.0497 38.0391 40.0182 37.9401 39.957 37.8741C39.8976 37.8081 39.8022 37.7751 39.6714 37.7751C39.4981 37.7751 39.3711 37.8219 39.2895 37.9145C39.2098 38.008 39.1708 38.1601 39.1708 38.3728V39.2271H38.9224V36.9098H39.1708V37.6101C39.1708 37.6963 39.1671 37.766 39.1597 37.8191H39.1745C39.2237 37.7412 39.2932 37.6798 39.3822 37.6358C39.473 37.59 39.5769 37.5661 39.6937 37.5661C39.8958 37.5661 40.0478 37.6138 40.1498 37.7091C40.2509 37.8045 40.3019 37.9566 40.3019 38.1638V39.2271H40.0497Z" fill="white"/>
<path d="M42.7378 38.3911C42.7823 38.3306 42.8472 38.2509 42.9343 38.1528L43.4683 37.5955H43.765L43.0975 38.2885L43.8132 39.2271H43.5091L42.9269 38.4571L42.7378 38.6148V39.2271H42.493V36.9098H42.7378V38.1381C42.7378 38.1922 42.7341 38.2765 42.7267 38.3911H42.7378Z" fill="white"/>
<path d="M45.6775 39.2271V38.1711C45.6775 38.0391 45.646 37.9401 45.5848 37.8741C45.5255 37.8081 45.43 37.7751 45.2993 37.7751C45.1259 37.7751 44.9989 37.8219 44.9173 37.9144C44.8376 38.0052 44.7986 38.1564 44.7986 38.3691V39.2271H44.5502V37.5954H44.7504L44.7912 37.8191H44.806C44.8552 37.7384 44.9256 37.6761 45.0174 37.6321C45.1111 37.5881 45.2149 37.5661 45.3289 37.5661C45.5264 37.5661 45.6756 37.6138 45.7776 37.7091C45.8787 37.8026 45.9297 37.9539 45.9297 38.1638V39.2271H45.6775Z" fill="white"/>
<path d="M48.3054 38.4094C48.3054 38.6762 48.2368 38.8843 48.1014 39.0328C47.9652 39.1822 47.777 39.2564 47.5378 39.2564C47.3913 39.2564 47.2606 39.2225 47.1447 39.1538C47.0307 39.0859 46.9426 38.9878 46.8814 38.8604C46.8193 38.7312 46.7887 38.5808 46.7887 38.4094C46.7887 38.1436 46.8554 37.9364 46.9889 37.7898C47.1243 37.6413 47.3116 37.5661 47.5489 37.5661C47.7807 37.5661 47.9652 37.6422 48.1014 37.7934C48.2368 37.9456 48.3054 38.1509 48.3054 38.4094ZM47.0483 38.4094C47.0483 38.6175 47.09 38.7761 47.1744 38.8861C47.2578 38.9961 47.382 39.0511 47.5452 39.0511C47.7084 39.0511 47.8317 38.9979 47.916 38.8898C48.0022 38.7798 48.0458 38.6203 48.0458 38.4094C48.0458 38.2023 48.0022 38.0446 47.916 37.9364C47.8317 37.8292 47.7065 37.7751 47.5415 37.7751C47.3783 37.7751 47.2541 37.8292 47.1707 37.9364C47.0891 38.0418 47.0483 38.1995 47.0483 38.4094Z" fill="white"/>
<path d="M49.431 39.2271H49.1825V36.9098H49.431V39.2271Z" fill="white"/>
<path d="M51.098 39.2564C50.8532 39.2564 50.6604 39.1831 50.5195 39.0364C50.3786 38.8898 50.3081 38.6863 50.3081 38.4241C50.3081 38.1601 50.373 37.9511 50.5046 37.7971C50.6354 37.6431 50.8106 37.5661 51.0312 37.5661C51.2389 37.5661 51.4021 37.6339 51.5207 37.7678C51.6413 37.9025 51.7024 38.0794 51.7024 38.2994V38.4571H50.5677C50.5723 38.6478 50.6205 38.7935 50.7123 38.8934C50.8059 38.9915 50.9367 39.0401 51.1054 39.0401C51.2834 39.0401 51.4586 39.0034 51.632 38.9301V39.1501C51.543 39.1895 51.4586 39.2161 51.3798 39.2308C51.3029 39.2473 51.2092 39.2564 51.098 39.2564ZM51.0275 37.7714C50.8959 37.7714 50.7911 37.8145 50.7123 37.8998C50.6326 37.9859 50.5862 38.1042 50.5714 38.2554H51.4354C51.4354 38.0996 51.3993 37.9795 51.3279 37.8961C51.2584 37.8136 51.1582 37.7714 51.0275 37.7714Z" fill="white"/>
<path d="M53.693 39.0071H53.6782C53.5614 39.174 53.3889 39.2565 53.159 39.2565C52.9439 39.2565 52.7752 39.185 52.6547 39.0401C52.536 38.8935 52.4767 38.6863 52.4767 38.4168C52.4767 38.1455 52.536 37.9365 52.6547 37.7898C52.7752 37.6413 52.9439 37.5661 53.159 37.5661C53.3834 37.5661 53.5558 37.6459 53.6745 37.8045H53.693L53.6856 37.6871L53.6782 37.5735V36.9098H53.9266V39.2271H53.7264L53.693 39.0071ZM53.1924 39.0511C53.363 39.0511 53.4863 39.0053 53.5632 38.9118C53.6392 38.8192 53.6782 38.6716 53.6782 38.4681V38.4168C53.6782 38.1849 53.6383 38.0199 53.5595 37.9218C53.4826 37.8219 53.3593 37.7715 53.1887 37.7715C53.0422 37.7715 52.93 37.8283 52.8512 37.9401C52.7743 38.0529 52.7363 38.2115 52.7363 38.4168C52.7363 38.6276 52.7743 38.7862 52.8512 38.8935C52.9272 38.9989 53.0413 39.0511 53.1924 39.0511Z" fill="white"/>
<path d="M56.2474 37.5954V37.7494L55.9396 37.7861C55.9693 37.8209 55.9953 37.8659 56.0175 37.9218C56.0398 37.9786 56.0509 38.0419 56.0509 38.1124C56.0509 38.2738 55.9953 38.4021 55.884 38.4974C55.7728 38.5928 55.6207 38.6404 55.4279 38.6404C55.3778 38.6404 55.3324 38.6359 55.2907 38.6258C55.1841 38.6826 55.1312 38.7532 55.1312 38.8384C55.1312 38.8824 55.1498 38.9154 55.1869 38.9374C55.2239 38.9576 55.2879 38.9668 55.3797 38.9668H55.6689C55.8488 38.9668 55.986 39.0053 56.0806 39.0804C56.177 39.1538 56.2252 39.261 56.2252 39.4031C56.2252 39.5837 56.1519 39.7221 56.0064 39.8174C55.8599 39.9128 55.6467 39.9604 55.3649 39.9604C55.1498 39.9604 54.9829 39.9201 54.8642 39.8394C54.7474 39.7606 54.6899 39.6497 54.6899 39.5058C54.6899 39.4049 54.7215 39.3188 54.7864 39.2454C54.8503 39.1749 54.9403 39.1263 55.0571 39.0988C55.0144 39.0795 54.9792 39.0502 54.9495 39.0108C54.9217 38.9723 54.9087 38.9255 54.9087 38.8714C54.9087 38.8128 54.9245 38.7614 54.9569 38.7174C54.9885 38.6716 55.0395 38.6276 55.109 38.5854C55.0218 38.5515 54.9514 38.4929 54.8976 38.4094C54.8457 38.3269 54.8197 38.2316 54.8197 38.1234C54.8197 37.9456 54.8735 37.8081 54.9829 37.7128C55.0914 37.6156 55.2443 37.5661 55.4427 37.5661C55.5289 37.5661 55.6068 37.5762 55.6764 37.5954H56.2474ZM54.931 39.5021C54.931 39.5901 54.9681 39.6561 55.0422 39.7001C55.1183 39.7459 55.2276 39.7698 55.3686 39.7698C55.5781 39.7698 55.7329 39.7386 55.8321 39.6781C55.9332 39.6167 55.9841 39.5324 55.9841 39.4251C55.9841 39.3371 55.9563 39.2757 55.9026 39.2418C55.8479 39.2079 55.744 39.1904 55.5911 39.1904H55.2907C55.1767 39.1904 55.0877 39.2179 55.0237 39.2711C54.9616 39.3243 54.931 39.4013 54.931 39.5021ZM55.0645 38.1161C55.0645 38.2316 55.096 38.3178 55.1609 38.3764C55.2276 38.4351 55.3185 38.4644 55.4353 38.4644C55.6801 38.4644 55.8024 38.3471 55.8024 38.1124C55.8024 37.8686 55.6782 37.7458 55.4316 37.7458C55.3148 37.7458 55.2249 37.7779 55.1609 37.8411C55.096 37.9025 55.0645 37.9942 55.0645 38.1161Z" fill="white"/>
<path d="M57.7226 39.2564C57.4779 39.2564 57.285 39.1831 57.1441 39.0364C57.0032 38.8898 56.9327 38.6863 56.9327 38.4241C56.9327 38.1601 56.9976 37.9511 57.1293 37.7971C57.26 37.6431 57.4352 37.5661 57.6559 37.5661C57.8635 37.5661 58.0267 37.6339 58.1454 37.7678C58.2659 37.9025 58.3271 38.0794 58.3271 38.2994V38.4571H57.1923C57.197 38.6478 57.2452 38.7935 57.3369 38.8934C57.4306 38.9915 57.5613 39.0401 57.73 39.0401C57.908 39.0401 58.0832 39.0034 58.2566 38.9301V39.1501C58.1676 39.1895 58.0832 39.2161 58.0044 39.2308C57.9275 39.2473 57.8339 39.2564 57.7226 39.2564ZM57.6522 37.7714C57.5205 37.7714 57.4157 37.8145 57.3369 37.8998C57.2572 37.9859 57.2109 38.1042 57.196 38.2554H58.0601C58.0601 38.0996 58.0239 37.9795 57.9525 37.8961C57.883 37.8136 57.7829 37.7714 57.6522 37.7714Z" fill="white"/>
</svg>
