<svg width="18" height="18" viewBox="0 0 18 18" fill="none" xmlns="http://www.w3.org/2000/svg">
<path d="M18 9C18 13.9705 13.9705 18 9 18C4.0295 18 0 13.9705 0 9C0 4.0295 4.0295 0 9 0C13.9705 0 18 4.0295 18 9Z" fill="#FFCC4D"/>
<path d="M9.00001 10.9245C7.51701 10.9245 6.53251 10.7515 5.31551 10.515C5.03701 10.462 4.49651 10.515 4.49651 11.334C4.49651 12.9715 6.37801 15.0185 9.00001 15.0185C11.622 15.0185 13.5035 12.9715 13.5035 11.334C13.5035 10.515 12.9625 10.4615 12.6845 10.515C11.4675 10.7515 10.4835 10.9245 9.00001 10.9245Z" fill="#800020"/>
<path d="M8.32501 1.64048C7.89551 0.424981 6.56301 -0.213018 5.34701 0.215482C4.60901 0.475482 4.08651 1.07098 3.88301 1.76748C3.28751 1.35298 2.50751 1.21748 1.77051 1.47748C0.555507 1.90648 -0.0834926 3.23998 0.346007 4.45548C0.407007 4.62748 0.488007 4.78698 0.582007 4.93448C1.55751 6.72548 4.37601 7.98448 6.08251 7.99998C7.40101 6.91648 8.80551 4.16748 8.44151 2.16148C8.42251 1.98748 8.38501 1.81248 8.32501 1.64048ZM9.67501 1.64048C10.1045 0.424981 11.4375 -0.213018 12.653 0.215482C13.391 0.475482 13.9135 1.07098 14.1175 1.76748C14.713 1.35298 15.493 1.21748 16.23 1.47748C17.445 1.90648 18.0835 3.23998 17.655 4.45548C17.5935 4.62748 17.513 4.78698 17.4185 4.93448C16.443 6.72548 13.6245 7.98448 11.9175 7.99998C10.599 6.91648 9.19501 4.16748 9.55901 2.16148C9.57751 1.98748 9.61501 1.81248 9.67501 1.64048Z" fill="#DD2E44"/>
</svg>
