<svg width="18" height="19" viewBox="0 0 18 19" fill="none" xmlns="http://www.w3.org/2000/svg">
<path d="M8.99998 18.5436C13.9705 18.5436 18 14.5253 18 9.56849C18 4.61168 13.9705 0.593384 8.99998 0.593384C4.02943 0.593384 0 4.61168 0 9.56849C0 14.5253 4.02943 18.5436 8.99998 18.5436Z" fill="#FFCC4D"/>
<path d="M9.00002 11.0644C7.18851 11.0644 5.98651 10.854 4.5 10.5658C4.1605 10.5005 3.5 10.5658 3.5 11.563C3.5 13.5575 5.79751 16.0506 9.00002 16.0506C12.202 16.0506 14.5 13.5575 14.5 11.563C14.5 10.5658 13.8395 10.5 13.5 10.5658C12.0135 10.854 10.8115 11.0644 9.00002 11.0644Z" fill="#6842C2"/>
<path d="M4.5 11.563C4.5 11.563 5.99999 12.0616 8.99998 12.0616C12 12.0616 13.5 11.563 13.5 11.563C13.5 11.563 12.5 14.1184 8.99998 14.1184C5.5 14.1184 4.5 11.563 4.5 11.563Z" fill="white"/>
<path d="M13.3307 7.02507C13.3307 7.8797 12.8617 8.57278 12.2827 8.57278C11.7042 8.57278 11.2347 7.8797 11.2347 7.02507C11.2347 6.17044 11.7037 5.47736 12.2827 5.47736C12.8617 5.47736 13.3307 6.17044 13.3307 7.02507ZM4.74719 7.02507C4.74719 7.8797 5.21619 8.57278 5.79519 8.57278C6.37369 8.57278 6.84319 7.8797 6.84319 7.02507C6.84319 6.17044 6.37419 5.47736 5.79519 5.47736C5.21619 5.47736 4.74719 6.17044 4.74719 7.02507Z" fill="#6842C2"/>
<path d="M17.4226 4.83271C17.3371 4.74994 16.7891 4.96933 16.2346 4.68761C15.0906 4.10622 12.1996 3.54528 10.3176 4.87509C10.1161 5.01719 9.27408 5.04113 9.03858 5.03115C8.80308 5.04163 7.96108 5.01769 7.75958 4.87509C5.87808 3.54528 2.98707 4.10622 1.84307 4.68761C1.28856 4.96933 0.740563 4.74994 0.655063 4.83271C0.531563 4.95188 0.531563 5.42905 0.655563 5.54872C0.778563 5.66789 1.39406 5.8055 1.51656 6.16301C1.64007 6.52102 1.64107 8.63515 2.62307 9.36612C3.54257 10.0502 5.68757 10.2561 7.04708 9.48479C8.23308 8.81215 8.19158 7.39609 8.40908 6.55243C8.48658 6.25177 8.70508 6.10019 9.03908 6.10019C9.37308 6.10019 9.59158 6.25177 9.66908 6.55243C9.88658 7.39559 9.84458 8.81215 11.0311 9.48479C12.3906 10.2556 14.5356 10.0497 15.4546 9.36612C16.4371 8.63564 16.4381 6.52102 16.5611 6.16301C16.6836 5.8055 17.2991 5.66739 17.4221 5.54872C17.5461 5.42905 17.5466 4.95188 17.4226 4.83271ZM7.32558 6.65265C7.28708 7.20362 7.18858 8.26168 6.52708 8.63714C6.12158 8.8675 5.59307 9.00761 5.04007 9.00761H5.03957C4.42707 9.00761 3.57807 8.83459 3.24607 8.58778C2.83107 8.27914 2.67307 7.00866 2.61357 6.53348C2.57557 6.23082 2.47357 5.49138 2.80757 5.37769C3.33757 5.19769 4.07707 5.05708 4.83357 5.05708C5.18007 5.05708 6.34408 5.07852 6.91108 5.42656C7.41358 5.7342 7.34708 6.34949 7.32558 6.65265ZM15.4646 6.5265C15.4051 7.00218 15.2471 8.27914 14.8321 8.58778C14.5001 8.83459 13.6511 9.00761 13.0386 9.00761H13.0381C12.4846 9.00761 11.9566 8.8675 11.5506 8.63714C10.8891 8.26218 10.7906 7.2106 10.7521 6.65963C10.7311 6.35647 10.6641 5.7367 11.1666 5.42905C11.7341 5.08102 12.8976 5.05708 13.2441 5.05708C14.0006 5.05708 14.7396 5.1952 15.2701 5.3752C15.6041 5.48888 15.5026 6.22384 15.4646 6.5265Z" fill="#6842C2"/>
</svg>
