<svg width="60" height="60" viewBox="0 0 60 60" fill="none" xmlns="http://www.w3.org/2000/svg">
<path d="M20.6412 0.0560637C19.0132 0.328384 17.7742 0.97862 16.6519 2.14015C15.3795 3.45729 14.7239 5.10233 14.7239 6.953C14.7239 8.83146 15.424 10.5098 16.7519 11.8437C17.5631 12.6606 18.491 13.2331 19.5189 13.5609C20.8857 14 22.4748 14 23.8082 13.5665C27.4253 12.3939 29.4422 8.48689 28.3032 4.8578C27.9754 3.81298 27.4475 2.92933 26.6697 2.12348C25.6529 1.0731 24.4694 0.417306 23.0304 0.117197C22.4359 -0.0106268 21.2135 -0.038415 20.6412 0.0560637Z" fill="white"/>
<path d="M12.5571 11.2379C10.8514 11.5658 9.38454 13.033 8.27886 15.5117C6.13417 20.3301 4.73957 26.3045 4.25618 32.7957C4.02838 35.8023 4.0006 38.9479 4.18951 39.6315C4.45065 40.5818 4.96182 41.2043 5.86748 41.6711C6.83981 42.1713 6.08972 42.1269 13.8628 42.1602L20.7525 42.188L21.2359 43.9942C21.5026 44.989 21.7304 45.8393 21.7415 45.8838C21.7582 45.9282 21.7693 43.3717 21.7748 40.1984L21.7804 34.4352H17.5355H13.2905L13.2516 33.5682C13.135 31.0895 13.5406 27.7216 14.3073 24.7928C14.5685 23.7924 14.9741 22.442 15.0296 22.3864C15.0463 22.3697 16.1297 23.4201 17.4354 24.7206C18.9189 26.1989 19.9079 27.1437 20.0746 27.2381C20.2247 27.3215 20.5025 27.4993 20.6969 27.6272C20.8858 27.755 21.2025 27.9217 21.397 27.994L21.7526 28.1273L27.2088 28.144C31.9926 28.1551 32.7149 28.1496 33.0428 28.0718C34.4151 27.755 35.393 26.5379 35.393 25.154C35.3875 23.848 34.5374 22.6754 33.2872 22.2474C32.9205 22.1252 32.9094 22.1252 28.1422 22.1085L23.3583 22.0918L20.458 19.1908L17.5577 16.2897L17.5355 15.6784C17.5132 14.9059 17.3966 14.4335 17.0576 13.7332C16.3187 12.2049 14.9296 11.2879 13.2794 11.2323C12.9572 11.2212 12.6349 11.2268 12.5571 11.2379Z" fill="white"/>
<path d="M38.5599 14.5947L38.0876 15.0338L38.1988 15.1449C38.4432 15.3894 41.5325 18.1404 41.5491 18.1238C41.5825 18.0904 39.1433 14.1557 39.0878 14.1557C39.06 14.1557 38.8211 14.3502 38.5599 14.5947Z" fill="white"/>
<path d="M33.1871 17.857L30.0145 21.4027L31.498 21.4361C33.1371 21.475 33.3371 21.5083 34.0594 21.864C34.3706 22.014 34.5984 22.1863 34.954 22.542C35.4151 22.9977 35.6318 23.3367 35.9263 24.0815C35.9708 24.1871 36.2597 23.8814 38.4933 21.386C39.8768 19.8355 40.9991 18.5406 40.9991 18.5128C40.9935 18.4794 39.999 17.5736 38.7877 16.4898C37.5765 15.4117 36.5375 14.478 36.4708 14.4224L36.3541 14.3168L33.1871 17.857Z" fill="white"/>
<path d="M38.671 21.6584L36.0374 24.6039L36.0319 25.1596V25.7098L36.2041 25.5264C36.343 25.3875 41.6992 19.3909 42.1937 18.824L42.3103 18.6906L42.177 18.7629C42.0492 18.8296 41.5714 18.8185 41.3936 18.7407C41.3325 18.7184 40.5657 19.5409 38.671 21.6584Z" fill="white"/>
<path d="M45.8107 18.8963C45.5884 18.9908 45.4884 19.1241 45.4884 19.3075C45.4884 19.4354 47.772 27.7495 47.8998 28.0829L47.9498 28.2108H51.5669H55.1895L55.1506 28.0329C55.0339 27.4605 52.6448 18.9963 52.5725 18.9129C52.4947 18.824 52.2669 18.8185 49.2333 18.8185C46.6774 18.824 45.944 18.8407 45.8107 18.8963ZM51.7224 20.9137C51.8891 21.4972 52.228 22.7032 52.228 22.7366C52.228 22.7532 51.4002 22.7588 50.389 22.7532L48.5499 22.7366L48.2498 21.6806C48.0831 21.0971 47.9498 20.608 47.9498 20.5802C47.9498 20.558 48.7721 20.5413 49.7833 20.5413H51.6113L51.7224 20.9137Z" fill="white"/>
<path d="M0 40.5763V60H1.77798H3.55596V53.4699V46.9397H9.94557H16.3352V53.4699V60H18.1132H19.8911V51.6025C19.8911 43.9442 19.8856 43.1884 19.8022 43.0161C19.6189 42.6326 20.2189 42.6604 11.4735 42.6604H3.55596V31.9065V21.1526H1.77798H0V40.5763Z" fill="white"/>
<path d="M44.7827 23.1477C44.755 23.2089 44.7272 23.6201 44.7272 24.0925C44.7272 24.7761 44.7438 24.9373 44.8161 25.0095C44.9328 25.1262 46.5329 25.1429 46.4885 25.0262C46.4718 24.9873 46.3385 24.526 46.194 23.998L45.9217 23.0421H45.3828C44.905 23.0421 44.8327 23.0533 44.7827 23.1477Z" fill="white"/>
<path d="M54.2839 23.0866C54.2839 23.1088 54.4117 23.5646 54.5617 24.0981C54.7173 24.6316 54.8396 25.0762 54.8396 25.0818C54.8396 25.0929 55.423 25.0984 56.1341 25.0984C57.0676 25.0984 57.4454 25.0818 57.4954 25.0318C57.5399 24.9873 57.5621 24.6927 57.5621 24.0703C57.5621 23.4479 57.5399 23.1533 57.4954 23.1088C57.4176 23.031 54.2839 23.0088 54.2839 23.0866Z" fill="white"/>
<path d="M43.9273 25.5209C43.8495 25.5931 43.8384 25.7932 43.8384 26.8214C43.8384 27.8495 43.8495 28.0496 43.9273 28.1218C43.9995 28.1996 44.2384 28.2108 45.6664 28.2108C46.5776 28.2108 47.3332 28.1996 47.3499 28.183C47.3666 28.1663 47.2054 27.5383 46.9887 26.7936L46.5998 25.432H45.3052C44.2051 25.432 43.9995 25.4431 43.9273 25.5209Z" fill="white"/>
<path d="M54.9729 25.5264C54.9896 25.582 55.1507 26.1656 55.3397 26.8213C55.5286 27.4771 55.6897 28.0607 55.7064 28.1107C55.7286 28.1941 55.8008 28.2107 56.0953 28.2107C56.7065 28.2107 56.6731 28.2941 56.6731 26.8325C56.6731 25.921 56.6565 25.5487 56.6065 25.4986C56.562 25.4542 56.2898 25.432 55.7397 25.432C55.0063 25.432 54.9452 25.4375 54.9729 25.5264Z" fill="white"/>
<path d="M15.2406 28.7665C15.1462 28.8221 15.0351 28.9221 15.0073 28.9832C14.9684 29.0555 14.9462 29.7502 14.9462 30.9728C14.9462 32.7346 14.9517 32.8624 15.0573 33.0291C15.1295 33.1458 15.2295 33.2237 15.374 33.2626C15.5129 33.3015 16.8297 33.3237 19.1855 33.3237H22.7804V46.6618V60H24.5584H26.3363V46.6618V33.3237H37.4765H48.6166V46.6618V60H50.3946H52.1726V46.6618V33.3292L55.8952 33.3126L59.6179 33.2959L59.7957 33.1125L59.979 32.9347L59.9957 31.0451C60.0068 29.4 60.0012 29.1333 59.9235 28.9832C59.7345 28.6275 61.5792 28.6553 37.4376 28.6553C15.7351 28.6553 15.4184 28.6553 15.2406 28.7665Z" fill="white"/>
<path d="M27.2864 48.3958L27.2809 59.9444L27.4253 59.9777C27.7143 60.05 28.4421 59.9388 29.4478 59.6665C30.7091 59.3275 31.0758 59.1552 31.5647 58.6662C32.187 58.0437 32.4926 57.2323 32.437 56.3709C32.4148 56.0819 31.7147 53.3698 29.8978 46.5229C28.5199 41.3266 27.3642 37.025 27.3364 36.9639C27.3087 36.8972 27.2864 41.4822 27.2864 48.3958Z" fill="white"/>
</svg>
